<?xml version="1.0" encoding="utf-8" standalone="no"?>
<!DOCTYPE svg PUBLIC "-//W3C//DTD SVG 1.1//EN"
  "http://www.w3.org/Graphics/SVG/1.1/DTD/svg11.dtd">
<svg xmlns:xlink="http://www.w3.org/1999/xlink" width="864pt" height="432pt" viewBox="0 0 864 432" xmlns="http://www.w3.org/2000/svg" version="1.1">
 <metadata>
  <rdf:RDF xmlns:dc="http://purl.org/dc/elements/1.1/" xmlns:cc="http://creativecommons.org/ns#" xmlns:rdf="http://www.w3.org/1999/02/22-rdf-syntax-ns#">
   <cc:Work>
    <dc:type rdf:resource="http://purl.org/dc/dcmitype/StillImage"/>
    <dc:date>2024-08-28T14:04:29.458682</dc:date>
    <dc:format>image/svg+xml</dc:format>
    <dc:creator>
     <cc:Agent>
      <dc:title>Matplotlib v3.9.2, https://matplotlib.org/</dc:title>
     </cc:Agent>
    </dc:creator>
   </cc:Work>
  </rdf:RDF>
 </metadata>
 <defs>
  <style type="text/css">*{stroke-linejoin: round; stroke-linecap: butt}</style>
 </defs>
 <g id="figure_1">
  <g id="patch_1">
   <path d="M 0 432 
L 864 432 
L 864 0 
L 0 0 
z
" style="fill: #ffffff"/>
  </g>
  <g id="axes_1">
   <g id="patch_2">
    <path d="M 108 384.48 
L 777.6 384.48 
L 777.6 51.84 
L 108 51.84 
z
" style="fill: #ffffff"/>
   </g>
   <g id="matplotlib.axis_1">
    <g id="xtick_1">
     <g id="line2d_1">
      <path d="M 138.436364 384.48 
L 138.436364 51.84 
" clip-path="url(#pf0be3b3494)" style="fill: none; stroke-dasharray: 0.74,0.32; stroke-dashoffset: 0; stroke: #cccccc; stroke-width: 0.2"/>
     </g>
     <g id="line2d_2">
      <defs>
       <path id="m2648bf98c3" d="M 0 0 
L 0 3.5 
" style="stroke: #262626; stroke-width: 0.8"/>
      </defs>
      <g>
       <use xlink:href="#m2648bf98c3" x="138.436364" y="384.48" style="fill: #262626; stroke: #262626; stroke-width: 0.8"/>
      </g>
     </g>
     <g id="text_1">
      <!-- 0 -->
      <g style="fill: #262626" transform="translate(134.265661 402.216719) scale(0.15 -0.15)">
       <defs>
        <path id="ArialMT-30" d="M 266 2259 
Q 266 3072 433 3567 
Q 600 4063 929 4331 
Q 1259 4600 1759 4600 
Q 2128 4600 2406 4451 
Q 2684 4303 2865 4023 
Q 3047 3744 3150 3342 
Q 3253 2941 3253 2259 
Q 3253 1453 3087 958 
Q 2922 463 2592 192 
Q 2263 -78 1759 -78 
Q 1097 -78 719 397 
Q 266 969 266 2259 
z
M 844 2259 
Q 844 1131 1108 757 
Q 1372 384 1759 384 
Q 2147 384 2411 759 
Q 2675 1134 2675 2259 
Q 2675 3391 2411 3762 
Q 2147 4134 1753 4134 
Q 1366 4134 1134 3806 
Q 844 3388 844 2259 
z
" transform="scale(0.015625)"/>
       </defs>
       <use xlink:href="#ArialMT-30"/>
      </g>
     </g>
    </g>
    <g id="xtick_2">
     <g id="line2d_3">
      <path d="M 219.6 384.48 
L 219.6 51.84 
" clip-path="url(#pf0be3b3494)" style="fill: none; stroke-dasharray: 0.74,0.32; stroke-dashoffset: 0; stroke: #cccccc; stroke-width: 0.2"/>
     </g>
     <g id="line2d_4">
      <g>
       <use xlink:href="#m2648bf98c3" x="219.6" y="384.48" style="fill: #262626; stroke: #262626; stroke-width: 0.8"/>
      </g>
     </g>
     <g id="text_2">
      <!-- 20 -->
      <g style="fill: #262626" transform="translate(211.258594 402.216719) scale(0.15 -0.15)">
       <defs>
        <path id="ArialMT-32" d="M 3222 541 
L 3222 0 
L 194 0 
Q 188 203 259 391 
Q 375 700 629 1000 
Q 884 1300 1366 1694 
Q 2113 2306 2375 2664 
Q 2638 3022 2638 3341 
Q 2638 3675 2398 3904 
Q 2159 4134 1775 4134 
Q 1369 4134 1125 3890 
Q 881 3647 878 3216 
L 300 3275 
Q 359 3922 746 4261 
Q 1134 4600 1788 4600 
Q 2447 4600 2831 4234 
Q 3216 3869 3216 3328 
Q 3216 3053 3103 2787 
Q 2991 2522 2730 2228 
Q 2469 1934 1863 1422 
Q 1356 997 1212 845 
Q 1069 694 975 541 
L 3222 541 
z
" transform="scale(0.015625)"/>
       </defs>
       <use xlink:href="#ArialMT-32"/>
       <use xlink:href="#ArialMT-30" x="55.615234"/>
      </g>
     </g>
    </g>
    <g id="xtick_3">
     <g id="line2d_5">
      <path d="M 300.763636 384.48 
L 300.763636 51.84 
" clip-path="url(#pf0be3b3494)" style="fill: none; stroke-dasharray: 0.74,0.32; stroke-dashoffset: 0; stroke: #cccccc; stroke-width: 0.2"/>
     </g>
     <g id="line2d_6">
      <g>
       <use xlink:href="#m2648bf98c3" x="300.763636" y="384.48" style="fill: #262626; stroke: #262626; stroke-width: 0.8"/>
      </g>
     </g>
     <g id="text_3">
      <!-- 40 -->
      <g style="fill: #262626" transform="translate(292.42223 402.216719) scale(0.15 -0.15)">
       <defs>
        <path id="ArialMT-34" d="M 2069 0 
L 2069 1097 
L 81 1097 
L 81 1613 
L 2172 4581 
L 2631 4581 
L 2631 1613 
L 3250 1613 
L 3250 1097 
L 2631 1097 
L 2631 0 
L 2069 0 
z
M 2069 1613 
L 2069 3678 
L 634 1613 
L 2069 1613 
z
" transform="scale(0.015625)"/>
       </defs>
       <use xlink:href="#ArialMT-34"/>
       <use xlink:href="#ArialMT-30" x="55.615234"/>
      </g>
     </g>
    </g>
    <g id="xtick_4">
     <g id="line2d_7">
      <path d="M 381.927273 384.48 
L 381.927273 51.84 
" clip-path="url(#pf0be3b3494)" style="fill: none; stroke-dasharray: 0.74,0.32; stroke-dashoffset: 0; stroke: #cccccc; stroke-width: 0.2"/>
     </g>
     <g id="line2d_8">
      <g>
       <use xlink:href="#m2648bf98c3" x="381.927273" y="384.48" style="fill: #262626; stroke: #262626; stroke-width: 0.8"/>
      </g>
     </g>
     <g id="text_4">
      <!-- 60 -->
      <g style="fill: #262626" transform="translate(373.585866 402.216719) scale(0.15 -0.15)">
       <defs>
        <path id="ArialMT-36" d="M 3184 3459 
L 2625 3416 
Q 2550 3747 2413 3897 
Q 2184 4138 1850 4138 
Q 1581 4138 1378 3988 
Q 1113 3794 959 3422 
Q 806 3050 800 2363 
Q 1003 2672 1297 2822 
Q 1591 2972 1913 2972 
Q 2475 2972 2870 2558 
Q 3266 2144 3266 1488 
Q 3266 1056 3080 686 
Q 2894 316 2569 119 
Q 2244 -78 1831 -78 
Q 1128 -78 684 439 
Q 241 956 241 2144 
Q 241 3472 731 4075 
Q 1159 4600 1884 4600 
Q 2425 4600 2770 4297 
Q 3116 3994 3184 3459 
z
M 888 1484 
Q 888 1194 1011 928 
Q 1134 663 1356 523 
Q 1578 384 1822 384 
Q 2178 384 2434 671 
Q 2691 959 2691 1453 
Q 2691 1928 2437 2201 
Q 2184 2475 1800 2475 
Q 1419 2475 1153 2201 
Q 888 1928 888 1484 
z
" transform="scale(0.015625)"/>
       </defs>
       <use xlink:href="#ArialMT-36"/>
       <use xlink:href="#ArialMT-30" x="55.615234"/>
      </g>
     </g>
    </g>
    <g id="xtick_5">
     <g id="line2d_9">
      <path d="M 463.090909 384.48 
L 463.090909 51.84 
" clip-path="url(#pf0be3b3494)" style="fill: none; stroke-dasharray: 0.74,0.32; stroke-dashoffset: 0; stroke: #cccccc; stroke-width: 0.2"/>
     </g>
     <g id="line2d_10">
      <g>
       <use xlink:href="#m2648bf98c3" x="463.090909" y="384.48" style="fill: #262626; stroke: #262626; stroke-width: 0.8"/>
      </g>
     </g>
     <g id="text_5">
      <!-- 80 -->
      <g style="fill: #262626" transform="translate(454.749503 402.216719) scale(0.15 -0.15)">
       <defs>
        <path id="ArialMT-38" d="M 1131 2484 
Q 781 2613 612 2850 
Q 444 3088 444 3419 
Q 444 3919 803 4259 
Q 1163 4600 1759 4600 
Q 2359 4600 2725 4251 
Q 3091 3903 3091 3403 
Q 3091 3084 2923 2848 
Q 2756 2613 2416 2484 
Q 2838 2347 3058 2040 
Q 3278 1734 3278 1309 
Q 3278 722 2862 322 
Q 2447 -78 1769 -78 
Q 1091 -78 675 323 
Q 259 725 259 1325 
Q 259 1772 486 2073 
Q 713 2375 1131 2484 
z
M 1019 3438 
Q 1019 3113 1228 2906 
Q 1438 2700 1772 2700 
Q 2097 2700 2305 2904 
Q 2513 3109 2513 3406 
Q 2513 3716 2298 3927 
Q 2084 4138 1766 4138 
Q 1444 4138 1231 3931 
Q 1019 3725 1019 3438 
z
M 838 1322 
Q 838 1081 952 856 
Q 1066 631 1291 507 
Q 1516 384 1775 384 
Q 2178 384 2440 643 
Q 2703 903 2703 1303 
Q 2703 1709 2433 1975 
Q 2163 2241 1756 2241 
Q 1359 2241 1098 1978 
Q 838 1716 838 1322 
z
" transform="scale(0.015625)"/>
       </defs>
       <use xlink:href="#ArialMT-38"/>
       <use xlink:href="#ArialMT-30" x="55.615234"/>
      </g>
     </g>
    </g>
    <g id="xtick_6">
     <g id="line2d_11">
      <path d="M 544.254545 384.48 
L 544.254545 51.84 
" clip-path="url(#pf0be3b3494)" style="fill: none; stroke-dasharray: 0.74,0.32; stroke-dashoffset: 0; stroke: #cccccc; stroke-width: 0.2"/>
     </g>
     <g id="line2d_12">
      <g>
       <use xlink:href="#m2648bf98c3" x="544.254545" y="384.48" style="fill: #262626; stroke: #262626; stroke-width: 0.8"/>
      </g>
     </g>
     <g id="text_6">
      <!-- 100 -->
      <g style="fill: #262626" transform="translate(531.742436 402.216719) scale(0.15 -0.15)">
       <defs>
        <path id="ArialMT-31" d="M 2384 0 
L 1822 0 
L 1822 3584 
Q 1619 3391 1289 3197 
Q 959 3003 697 2906 
L 697 3450 
Q 1169 3672 1522 3987 
Q 1875 4303 2022 4600 
L 2384 4600 
L 2384 0 
z
" transform="scale(0.015625)"/>
       </defs>
       <use xlink:href="#ArialMT-31"/>
       <use xlink:href="#ArialMT-30" x="55.615234"/>
       <use xlink:href="#ArialMT-30" x="111.230469"/>
      </g>
     </g>
    </g>
    <g id="xtick_7">
     <g id="line2d_13">
      <path d="M 625.418182 384.48 
L 625.418182 51.84 
" clip-path="url(#pf0be3b3494)" style="fill: none; stroke-dasharray: 0.74,0.32; stroke-dashoffset: 0; stroke: #cccccc; stroke-width: 0.2"/>
     </g>
     <g id="line2d_14">
      <g>
       <use xlink:href="#m2648bf98c3" x="625.418182" y="384.48" style="fill: #262626; stroke: #262626; stroke-width: 0.8"/>
      </g>
     </g>
     <g id="text_7">
      <!-- 120 -->
      <g style="fill: #262626" transform="translate(612.906072 402.216719) scale(0.15 -0.15)">
       <use xlink:href="#ArialMT-31"/>
       <use xlink:href="#ArialMT-32" x="55.615234"/>
       <use xlink:href="#ArialMT-30" x="111.230469"/>
      </g>
     </g>
    </g>
    <g id="xtick_8">
     <g id="line2d_15">
      <path d="M 706.581818 384.48 
L 706.581818 51.84 
" clip-path="url(#pf0be3b3494)" style="fill: none; stroke-dasharray: 0.74,0.32; stroke-dashoffset: 0; stroke: #cccccc; stroke-width: 0.2"/>
     </g>
     <g id="line2d_16">
      <g>
       <use xlink:href="#m2648bf98c3" x="706.581818" y="384.48" style="fill: #262626; stroke: #262626; stroke-width: 0.8"/>
      </g>
     </g>
     <g id="text_8">
      <!-- 140 -->
      <g style="fill: #262626" transform="translate(694.069709 402.216719) scale(0.15 -0.15)">
       <use xlink:href="#ArialMT-31"/>
       <use xlink:href="#ArialMT-34" x="55.615234"/>
       <use xlink:href="#ArialMT-30" x="111.230469"/>
      </g>
     </g>
    </g>
    <g id="text_9">
     <!-- epoch -->
     <g style="fill: #262626" transform="translate(422.367188 419.934687) scale(0.15 -0.15)">
      <defs>
       <path id="ArialMT-65" d="M 2694 1069 
L 3275 997 
Q 3138 488 2766 206 
Q 2394 -75 1816 -75 
Q 1088 -75 661 373 
Q 234 822 234 1631 
Q 234 2469 665 2931 
Q 1097 3394 1784 3394 
Q 2450 3394 2872 2941 
Q 3294 2488 3294 1666 
Q 3294 1616 3291 1516 
L 816 1516 
Q 847 969 1125 678 
Q 1403 388 1819 388 
Q 2128 388 2347 550 
Q 2566 713 2694 1069 
z
M 847 1978 
L 2700 1978 
Q 2663 2397 2488 2606 
Q 2219 2931 1791 2931 
Q 1403 2931 1139 2672 
Q 875 2413 847 1978 
z
" transform="scale(0.015625)"/>
       <path id="ArialMT-70" d="M 422 -1272 
L 422 3319 
L 934 3319 
L 934 2888 
Q 1116 3141 1344 3267 
Q 1572 3394 1897 3394 
Q 2322 3394 2647 3175 
Q 2972 2956 3137 2557 
Q 3303 2159 3303 1684 
Q 3303 1175 3120 767 
Q 2938 359 2589 142 
Q 2241 -75 1856 -75 
Q 1575 -75 1351 44 
Q 1128 163 984 344 
L 984 -1272 
L 422 -1272 
z
M 931 1641 
Q 931 1000 1190 694 
Q 1450 388 1819 388 
Q 2194 388 2461 705 
Q 2728 1022 2728 1688 
Q 2728 2322 2467 2637 
Q 2206 2953 1844 2953 
Q 1484 2953 1207 2617 
Q 931 2281 931 1641 
z
" transform="scale(0.015625)"/>
       <path id="ArialMT-6f" d="M 213 1659 
Q 213 2581 725 3025 
Q 1153 3394 1769 3394 
Q 2453 3394 2887 2945 
Q 3322 2497 3322 1706 
Q 3322 1066 3130 698 
Q 2938 331 2570 128 
Q 2203 -75 1769 -75 
Q 1072 -75 642 372 
Q 213 819 213 1659 
z
M 791 1659 
Q 791 1022 1069 705 
Q 1347 388 1769 388 
Q 2188 388 2466 706 
Q 2744 1025 2744 1678 
Q 2744 2294 2464 2611 
Q 2184 2928 1769 2928 
Q 1347 2928 1069 2612 
Q 791 2297 791 1659 
z
" transform="scale(0.015625)"/>
       <path id="ArialMT-63" d="M 2588 1216 
L 3141 1144 
Q 3050 572 2676 248 
Q 2303 -75 1759 -75 
Q 1078 -75 664 370 
Q 250 816 250 1647 
Q 250 2184 428 2587 
Q 606 2991 970 3192 
Q 1334 3394 1763 3394 
Q 2303 3394 2647 3120 
Q 2991 2847 3088 2344 
L 2541 2259 
Q 2463 2594 2264 2762 
Q 2066 2931 1784 2931 
Q 1359 2931 1093 2626 
Q 828 2322 828 1663 
Q 828 994 1084 691 
Q 1341 388 1753 388 
Q 2084 388 2306 591 
Q 2528 794 2588 1216 
z
" transform="scale(0.015625)"/>
       <path id="ArialMT-68" d="M 422 0 
L 422 4581 
L 984 4581 
L 984 2938 
Q 1378 3394 1978 3394 
Q 2347 3394 2619 3248 
Q 2891 3103 3008 2847 
Q 3125 2591 3125 2103 
L 3125 0 
L 2563 0 
L 2563 2103 
Q 2563 2525 2380 2717 
Q 2197 2909 1863 2909 
Q 1613 2909 1392 2779 
Q 1172 2650 1078 2428 
Q 984 2206 984 1816 
L 984 0 
L 422 0 
z
" transform="scale(0.015625)"/>
      </defs>
      <use xlink:href="#ArialMT-65"/>
      <use xlink:href="#ArialMT-70" x="55.615234"/>
      <use xlink:href="#ArialMT-6f" x="111.230469"/>
      <use xlink:href="#ArialMT-63" x="166.845703"/>
      <use xlink:href="#ArialMT-68" x="216.845703"/>
     </g>
    </g>
   </g>
   <g id="matplotlib.axis_2">
    <g id="ytick_1">
     <g id="line2d_17">
      <path d="M 108 324.334858 
L 777.6 324.334858 
" clip-path="url(#pf0be3b3494)" style="fill: none; stroke-dasharray: 0.74,0.32; stroke-dashoffset: 0; stroke: #cccccc; stroke-width: 0.2"/>
     </g>
     <g id="line2d_18">
      <defs>
       <path id="mf2b4f555d5" d="M 0 0 
L -3.5 0 
" style="stroke: #262626; stroke-width: 0.8"/>
      </defs>
      <g>
       <use xlink:href="#mf2b4f555d5" x="108" y="324.334858" style="fill: #262626; stroke: #262626; stroke-width: 0.8"/>
      </g>
     </g>
     <g id="text_10">
      <!-- 4550 -->
      <g style="fill: #262626" transform="translate(67.634375 329.703218) scale(0.15 -0.15)">
       <defs>
        <path id="ArialMT-35" d="M 266 1200 
L 856 1250 
Q 922 819 1161 601 
Q 1400 384 1738 384 
Q 2144 384 2425 690 
Q 2706 997 2706 1503 
Q 2706 1984 2436 2262 
Q 2166 2541 1728 2541 
Q 1456 2541 1237 2417 
Q 1019 2294 894 2097 
L 366 2166 
L 809 4519 
L 3088 4519 
L 3088 3981 
L 1259 3981 
L 1013 2750 
Q 1425 3038 1878 3038 
Q 2478 3038 2890 2622 
Q 3303 2206 3303 1553 
Q 3303 931 2941 478 
Q 2500 -78 1738 -78 
Q 1113 -78 717 272 
Q 322 622 266 1200 
z
" transform="scale(0.015625)"/>
       </defs>
       <use xlink:href="#ArialMT-34"/>
       <use xlink:href="#ArialMT-35" x="55.615234"/>
       <use xlink:href="#ArialMT-35" x="111.230469"/>
       <use xlink:href="#ArialMT-30" x="166.845703"/>
      </g>
     </g>
    </g>
    <g id="ytick_2">
     <g id="line2d_19">
      <path d="M 108 262.361606 
L 777.6 262.361606 
" clip-path="url(#pf0be3b3494)" style="fill: none; stroke-dasharray: 0.74,0.32; stroke-dashoffset: 0; stroke: #cccccc; stroke-width: 0.2"/>
     </g>
     <g id="line2d_20">
      <g>
       <use xlink:href="#mf2b4f555d5" x="108" y="262.361606" style="fill: #262626; stroke: #262626; stroke-width: 0.8"/>
      </g>
     </g>
     <g id="text_11">
      <!-- 4600 -->
      <g style="fill: #262626" transform="translate(67.634375 267.729965) scale(0.15 -0.15)">
       <use xlink:href="#ArialMT-34"/>
       <use xlink:href="#ArialMT-36" x="55.615234"/>
       <use xlink:href="#ArialMT-30" x="111.230469"/>
       <use xlink:href="#ArialMT-30" x="166.845703"/>
      </g>
     </g>
    </g>
    <g id="ytick_3">
     <g id="line2d_21">
      <path d="M 108 200.388353 
L 777.6 200.388353 
" clip-path="url(#pf0be3b3494)" style="fill: none; stroke-dasharray: 0.74,0.32; stroke-dashoffset: 0; stroke: #cccccc; stroke-width: 0.2"/>
     </g>
     <g id="line2d_22">
      <g>
       <use xlink:href="#mf2b4f555d5" x="108" y="200.388353" style="fill: #262626; stroke: #262626; stroke-width: 0.8"/>
      </g>
     </g>
     <g id="text_12">
      <!-- 4650 -->
      <g style="fill: #262626" transform="translate(67.634375 205.756712) scale(0.15 -0.15)">
       <use xlink:href="#ArialMT-34"/>
       <use xlink:href="#ArialMT-36" x="55.615234"/>
       <use xlink:href="#ArialMT-35" x="111.230469"/>
       <use xlink:href="#ArialMT-30" x="166.845703"/>
      </g>
     </g>
    </g>
    <g id="ytick_4">
     <g id="line2d_23">
      <path d="M 108 138.4151 
L 777.6 138.4151 
" clip-path="url(#pf0be3b3494)" style="fill: none; stroke-dasharray: 0.74,0.32; stroke-dashoffset: 0; stroke: #cccccc; stroke-width: 0.2"/>
     </g>
     <g id="line2d_24">
      <g>
       <use xlink:href="#mf2b4f555d5" x="108" y="138.4151" style="fill: #262626; stroke: #262626; stroke-width: 0.8"/>
      </g>
     </g>
     <g id="text_13">
      <!-- 4700 -->
      <g style="fill: #262626" transform="translate(67.634375 143.783459) scale(0.15 -0.15)">
       <defs>
        <path id="ArialMT-37" d="M 303 3981 
L 303 4522 
L 3269 4522 
L 3269 4084 
Q 2831 3619 2401 2847 
Q 1972 2075 1738 1259 
Q 1569 684 1522 0 
L 944 0 
Q 953 541 1156 1306 
Q 1359 2072 1739 2783 
Q 2119 3494 2547 3981 
L 303 3981 
z
" transform="scale(0.015625)"/>
       </defs>
       <use xlink:href="#ArialMT-34"/>
       <use xlink:href="#ArialMT-37" x="55.615234"/>
       <use xlink:href="#ArialMT-30" x="111.230469"/>
       <use xlink:href="#ArialMT-30" x="166.845703"/>
      </g>
     </g>
    </g>
    <g id="ytick_5">
     <g id="line2d_25">
      <path d="M 108 76.441847 
L 777.6 76.441847 
" clip-path="url(#pf0be3b3494)" style="fill: none; stroke-dasharray: 0.74,0.32; stroke-dashoffset: 0; stroke: #cccccc; stroke-width: 0.2"/>
     </g>
     <g id="line2d_26">
      <g>
       <use xlink:href="#mf2b4f555d5" x="108" y="76.441847" style="fill: #262626; stroke: #262626; stroke-width: 0.8"/>
      </g>
     </g>
     <g id="text_14">
      <!-- 4750 -->
      <g style="fill: #262626" transform="translate(67.634375 81.810207) scale(0.15 -0.15)">
       <use xlink:href="#ArialMT-34"/>
       <use xlink:href="#ArialMT-37" x="55.615234"/>
       <use xlink:href="#ArialMT-35" x="111.230469"/>
       <use xlink:href="#ArialMT-30" x="166.845703"/>
      </g>
     </g>
    </g>
    <g id="text_15">
     <!-- MSE -->
     <g style="fill: #262626" transform="translate(60.653125 234.412734) rotate(-90) scale(0.15 -0.15)">
      <defs>
       <path id="ArialMT-4d" d="M 475 0 
L 475 4581 
L 1388 4581 
L 2472 1338 
Q 2622 884 2691 659 
Q 2769 909 2934 1394 
L 4031 4581 
L 4847 4581 
L 4847 0 
L 4263 0 
L 4263 3834 
L 2931 0 
L 2384 0 
L 1059 3900 
L 1059 0 
L 475 0 
z
" transform="scale(0.015625)"/>
       <path id="ArialMT-53" d="M 288 1472 
L 859 1522 
Q 900 1178 1048 958 
Q 1197 738 1509 602 
Q 1822 466 2213 466 
Q 2559 466 2825 569 
Q 3091 672 3220 851 
Q 3350 1031 3350 1244 
Q 3350 1459 3225 1620 
Q 3100 1781 2813 1891 
Q 2628 1963 1997 2114 
Q 1366 2266 1113 2400 
Q 784 2572 623 2826 
Q 463 3081 463 3397 
Q 463 3744 659 4045 
Q 856 4347 1234 4503 
Q 1613 4659 2075 4659 
Q 2584 4659 2973 4495 
Q 3363 4331 3572 4012 
Q 3781 3694 3797 3291 
L 3216 3247 
Q 3169 3681 2898 3903 
Q 2628 4125 2100 4125 
Q 1550 4125 1298 3923 
Q 1047 3722 1047 3438 
Q 1047 3191 1225 3031 
Q 1400 2872 2139 2705 
Q 2878 2538 3153 2413 
Q 3553 2228 3743 1945 
Q 3934 1663 3934 1294 
Q 3934 928 3725 604 
Q 3516 281 3123 101 
Q 2731 -78 2241 -78 
Q 1619 -78 1198 103 
Q 778 284 539 648 
Q 300 1013 288 1472 
z
" transform="scale(0.015625)"/>
       <path id="ArialMT-45" d="M 506 0 
L 506 4581 
L 3819 4581 
L 3819 4041 
L 1113 4041 
L 1113 2638 
L 3647 2638 
L 3647 2100 
L 1113 2100 
L 1113 541 
L 3925 541 
L 3925 0 
L 506 0 
z
" transform="scale(0.015625)"/>
      </defs>
      <use xlink:href="#ArialMT-4d"/>
      <use xlink:href="#ArialMT-53" x="83.300781"/>
      <use xlink:href="#ArialMT-45" x="150"/>
     </g>
    </g>
   </g>
   <g id="PathCollection_1">
    <defs>
     <path id="m23c2ca0f06" d="M 0 3 
C 0.795609 3 1.55874 2.683901 2.12132 2.12132 
C 2.683901 1.55874 3 0.795609 3 0 
C 3 -0.795609 2.683901 -1.55874 2.12132 -2.12132 
C 1.55874 -2.683901 0.795609 -3 0 -3 
C -0.795609 -3 -1.55874 -2.683901 -2.12132 -2.12132 
C -2.683901 -1.55874 -3 -0.795609 -3 0 
C -3 0.795609 -2.683901 1.55874 -2.12132 2.12132 
C -1.55874 2.683901 -0.795609 3 0 3 
z
" style="stroke: #4c72b0; stroke-width: 2"/>
    </defs>
    <g clip-path="url(#pf0be3b3494)">
     <use xlink:href="#m23c2ca0f06" x="138.436364" y="66.96" style="fill: #4c72b0; stroke: #4c72b0; stroke-width: 2"/>
     <use xlink:href="#m23c2ca0f06" x="158.727273" y="339.349573" style="fill: #4c72b0; stroke: #4c72b0; stroke-width: 2"/>
     <use xlink:href="#m23c2ca0f06" x="179.018182" y="220.201032" style="fill: #4c72b0; stroke: #4c72b0; stroke-width: 2"/>
     <use xlink:href="#m23c2ca0f06" x="199.309091" y="191.534711" style="fill: #4c72b0; stroke: #4c72b0; stroke-width: 2"/>
     <use xlink:href="#m23c2ca0f06" x="219.6" y="171.646986" style="fill: #4c72b0; stroke: #4c72b0; stroke-width: 2"/>
     <use xlink:href="#m23c2ca0f06" x="239.890909" y="161.494266" style="fill: #4c72b0; stroke: #4c72b0; stroke-width: 2"/>
     <use xlink:href="#m23c2ca0f06" x="260.181818" y="147.596462" style="fill: #4c72b0; stroke: #4c72b0; stroke-width: 2"/>
     <use xlink:href="#m23c2ca0f06" x="280.472727" y="153.221442" style="fill: #4c72b0; stroke: #4c72b0; stroke-width: 2"/>
     <use xlink:href="#m23c2ca0f06" x="300.763636" y="153.526225" style="fill: #4c72b0; stroke: #4c72b0; stroke-width: 2"/>
     <use xlink:href="#m23c2ca0f06" x="321.054545" y="150.440634" style="fill: #4c72b0; stroke: #4c72b0; stroke-width: 2"/>
     <use xlink:href="#m23c2ca0f06" x="341.345455" y="158.405226" style="fill: #4c72b0; stroke: #4c72b0; stroke-width: 2"/>
     <use xlink:href="#m23c2ca0f06" x="361.636364" y="163.256086" style="fill: #4c72b0; stroke: #4c72b0; stroke-width: 2"/>
     <use xlink:href="#m23c2ca0f06" x="381.927273" y="153.546439" style="fill: #4c72b0; stroke: #4c72b0; stroke-width: 2"/>
     <use xlink:href="#m23c2ca0f06" x="402.218182" y="166.289325" style="fill: #4c72b0; stroke: #4c72b0; stroke-width: 2"/>
     <use xlink:href="#m23c2ca0f06" x="422.509091" y="164.787987" style="fill: #4c72b0; stroke: #4c72b0; stroke-width: 2"/>
     <use xlink:href="#m23c2ca0f06" x="442.8" y="165.090288" style="fill: #4c72b0; stroke: #4c72b0; stroke-width: 2"/>
     <use xlink:href="#m23c2ca0f06" x="463.090909" y="160.381713" style="fill: #4c72b0; stroke: #4c72b0; stroke-width: 2"/>
     <use xlink:href="#m23c2ca0f06" x="483.381818" y="162.181237" style="fill: #4c72b0; stroke: #4c72b0; stroke-width: 2"/>
     <use xlink:href="#m23c2ca0f06" x="503.672727" y="160.208866" style="fill: #4c72b0; stroke: #4c72b0; stroke-width: 2"/>
     <use xlink:href="#m23c2ca0f06" x="523.963636" y="161.078186" style="fill: #4c72b0; stroke: #4c72b0; stroke-width: 2"/>
     <use xlink:href="#m23c2ca0f06" x="544.254545" y="157.739316" style="fill: #4c72b0; stroke: #4c72b0; stroke-width: 2"/>
     <use xlink:href="#m23c2ca0f06" x="564.545455" y="158.061529" style="fill: #4c72b0; stroke: #4c72b0; stroke-width: 2"/>
     <use xlink:href="#m23c2ca0f06" x="584.836364" y="162.205385" style="fill: #4c72b0; stroke: #4c72b0; stroke-width: 2"/>
     <use xlink:href="#m23c2ca0f06" x="605.127273" y="168.949757" style="fill: #4c72b0; stroke: #4c72b0; stroke-width: 2"/>
     <use xlink:href="#m23c2ca0f06" x="625.418182" y="159.099036" style="fill: #4c72b0; stroke: #4c72b0; stroke-width: 2"/>
     <use xlink:href="#m23c2ca0f06" x="645.709091" y="158.580252" style="fill: #4c72b0; stroke: #4c72b0; stroke-width: 2"/>
     <use xlink:href="#m23c2ca0f06" x="666" y="156.743992" style="fill: #4c72b0; stroke: #4c72b0; stroke-width: 2"/>
     <use xlink:href="#m23c2ca0f06" x="686.290909" y="156.007636" style="fill: #4c72b0; stroke: #4c72b0; stroke-width: 2"/>
     <use xlink:href="#m23c2ca0f06" x="706.581818" y="153.373712" style="fill: #4c72b0; stroke: #4c72b0; stroke-width: 2"/>
     <use xlink:href="#m23c2ca0f06" x="726.872727" y="155.446488" style="fill: #4c72b0; stroke: #4c72b0; stroke-width: 2"/>
     <use xlink:href="#m23c2ca0f06" x="747.163636" y="158.764054" style="fill: #4c72b0; stroke: #4c72b0; stroke-width: 2"/>
    </g>
   </g>
   <g id="PathCollection_2">
    <defs>
     <path id="m6a20be2923" d="M 0 3 
C 0.795609 3 1.55874 2.683901 2.12132 2.12132 
C 2.683901 1.55874 3 0.795609 3 0 
C 3 -0.795609 2.683901 -1.55874 2.12132 -2.12132 
C 1.55874 -2.683901 0.795609 -3 0 -3 
C -0.795609 -3 -1.55874 -2.683901 -2.12132 -2.12132 
C -2.683901 -1.55874 -3 -0.795609 -3 0 
C -3 0.795609 -2.683901 1.55874 -2.12132 2.12132 
C -1.55874 2.683901 -0.795609 3 0 3 
z
" style="stroke: #dd8452; stroke-width: 2"/>
    </defs>
    <g clip-path="url(#pf0be3b3494)">
     <use xlink:href="#m6a20be2923" x="138.436364" y="67.466075" style="fill: #dd8452; stroke: #dd8452; stroke-width: 2"/>
     <use xlink:href="#m6a20be2923" x="158.727273" y="325.880135" style="fill: #dd8452; stroke: #dd8452; stroke-width: 2"/>
     <use xlink:href="#m6a20be2923" x="179.018182" y="245.137096" style="fill: #dd8452; stroke: #dd8452; stroke-width: 2"/>
     <use xlink:href="#m6a20be2923" x="199.309091" y="204.980547" style="fill: #dd8452; stroke: #dd8452; stroke-width: 2"/>
     <use xlink:href="#m6a20be2923" x="219.6" y="184.29195" style="fill: #dd8452; stroke: #dd8452; stroke-width: 2"/>
     <use xlink:href="#m6a20be2923" x="239.890909" y="166.062917" style="fill: #dd8452; stroke: #dd8452; stroke-width: 2"/>
     <use xlink:href="#m6a20be2923" x="260.181818" y="157.730299" style="fill: #dd8452; stroke: #dd8452; stroke-width: 2"/>
     <use xlink:href="#m6a20be2923" x="280.472727" y="167.072161" style="fill: #dd8452; stroke: #dd8452; stroke-width: 2"/>
     <use xlink:href="#m6a20be2923" x="300.763636" y="171.859232" style="fill: #dd8452; stroke: #dd8452; stroke-width: 2"/>
     <use xlink:href="#m6a20be2923" x="321.054545" y="165.190571" style="fill: #dd8452; stroke: #dd8452; stroke-width: 2"/>
     <use xlink:href="#m6a20be2923" x="341.345455" y="158.929336" style="fill: #dd8452; stroke: #dd8452; stroke-width: 2"/>
     <use xlink:href="#m6a20be2923" x="361.636364" y="159.841868" style="fill: #dd8452; stroke: #dd8452; stroke-width: 2"/>
     <use xlink:href="#m6a20be2923" x="381.927273" y="165.518715" style="fill: #dd8452; stroke: #dd8452; stroke-width: 2"/>
     <use xlink:href="#m6a20be2923" x="402.218182" y="181.546245" style="fill: #dd8452; stroke: #dd8452; stroke-width: 2"/>
     <use xlink:href="#m6a20be2923" x="422.509091" y="187.437456" style="fill: #dd8452; stroke: #dd8452; stroke-width: 2"/>
     <use xlink:href="#m6a20be2923" x="442.8" y="173.751777" style="fill: #dd8452; stroke: #dd8452; stroke-width: 2"/>
     <use xlink:href="#m6a20be2923" x="463.090909" y="169.44052" style="fill: #dd8452; stroke: #dd8452; stroke-width: 2"/>
     <use xlink:href="#m6a20be2923" x="483.381818" y="173.912641" style="fill: #dd8452; stroke: #dd8452; stroke-width: 2"/>
     <use xlink:href="#m6a20be2923" x="503.672727" y="172.830288" style="fill: #dd8452; stroke: #dd8452; stroke-width: 2"/>
     <use xlink:href="#m6a20be2923" x="523.963636" y="182.841449" style="fill: #dd8452; stroke: #dd8452; stroke-width: 2"/>
     <use xlink:href="#m6a20be2923" x="544.254545" y="171.587252" style="fill: #dd8452; stroke: #dd8452; stroke-width: 2"/>
     <use xlink:href="#m6a20be2923" x="564.545455" y="164.416934" style="fill: #dd8452; stroke: #dd8452; stroke-width: 2"/>
     <use xlink:href="#m6a20be2923" x="584.836364" y="173.915001" style="fill: #dd8452; stroke: #dd8452; stroke-width: 2"/>
     <use xlink:href="#m6a20be2923" x="605.127273" y="170.315953" style="fill: #dd8452; stroke: #dd8452; stroke-width: 2"/>
     <use xlink:href="#m6a20be2923" x="625.418182" y="177.303921" style="fill: #dd8452; stroke: #dd8452; stroke-width: 2"/>
     <use xlink:href="#m6a20be2923" x="645.709091" y="169.949137" style="fill: #dd8452; stroke: #dd8452; stroke-width: 2"/>
     <use xlink:href="#m6a20be2923" x="666" y="172.454635" style="fill: #dd8452; stroke: #dd8452; stroke-width: 2"/>
     <use xlink:href="#m6a20be2923" x="686.290909" y="170.588478" style="fill: #dd8452; stroke: #dd8452; stroke-width: 2"/>
     <use xlink:href="#m6a20be2923" x="706.581818" y="169.366927" style="fill: #dd8452; stroke: #dd8452; stroke-width: 2"/>
     <use xlink:href="#m6a20be2923" x="726.872727" y="175.300321" style="fill: #dd8452; stroke: #dd8452; stroke-width: 2"/>
     <use xlink:href="#m6a20be2923" x="747.163636" y="169.511995" style="fill: #dd8452; stroke: #dd8452; stroke-width: 2"/>
    </g>
   </g>
   <g id="PathCollection_3">
    <defs>
     <path id="m8a94f34a2a" d="M 0 3 
C 0.795609 3 1.55874 2.683901 2.12132 2.12132 
C 2.683901 1.55874 3 0.795609 3 0 
C 3 -0.795609 2.683901 -1.55874 2.12132 -2.12132 
C 1.55874 -2.683901 0.795609 -3 0 -3 
C -0.795609 -3 -1.55874 -2.683901 -2.12132 -2.12132 
C -2.683901 -1.55874 -3 -0.795609 -3 0 
C -3 0.795609 -2.683901 1.55874 -2.12132 2.12132 
C -1.55874 2.683901 -0.795609 3 0 3 
z
" style="stroke: #55a868; stroke-width: 2"/>
    </defs>
    <g clip-path="url(#pf0be3b3494)">
     <use xlink:href="#m8a94f34a2a" x="138.436364" y="67.225505" style="fill: #55a868; stroke: #55a868; stroke-width: 2"/>
     <use xlink:href="#m8a94f34a2a" x="158.727273" y="369.36" style="fill: #55a868; stroke: #55a868; stroke-width: 2"/>
     <use xlink:href="#m8a94f34a2a" x="179.018182" y="360.689313" style="fill: #55a868; stroke: #55a868; stroke-width: 2"/>
     <use xlink:href="#m8a94f34a2a" x="199.309091" y="236.678231" style="fill: #55a868; stroke: #55a868; stroke-width: 2"/>
     <use xlink:href="#m8a94f34a2a" x="219.6" y="199.205232" style="fill: #55a868; stroke: #55a868; stroke-width: 2"/>
     <use xlink:href="#m8a94f34a2a" x="239.890909" y="181.911003" style="fill: #55a868; stroke: #55a868; stroke-width: 2"/>
     <use xlink:href="#m8a94f34a2a" x="260.181818" y="165.87724" style="fill: #55a868; stroke: #55a868; stroke-width: 2"/>
     <use xlink:href="#m8a94f34a2a" x="280.472727" y="157.265197" style="fill: #55a868; stroke: #55a868; stroke-width: 2"/>
     <use xlink:href="#m8a94f34a2a" x="300.763636" y="166.306634" style="fill: #55a868; stroke: #55a868; stroke-width: 2"/>
     <use xlink:href="#m8a94f34a2a" x="321.054545" y="158.499578" style="fill: #55a868; stroke: #55a868; stroke-width: 2"/>
     <use xlink:href="#m8a94f34a2a" x="341.345455" y="171.223764" style="fill: #55a868; stroke: #55a868; stroke-width: 2"/>
     <use xlink:href="#m8a94f34a2a" x="361.636364" y="167.797926" style="fill: #55a868; stroke: #55a868; stroke-width: 2"/>
     <use xlink:href="#m8a94f34a2a" x="381.927273" y="165.086112" style="fill: #55a868; stroke: #55a868; stroke-width: 2"/>
     <use xlink:href="#m8a94f34a2a" x="402.218182" y="165.065414" style="fill: #55a868; stroke: #55a868; stroke-width: 2"/>
     <use xlink:href="#m8a94f34a2a" x="422.509091" y="178.089844" style="fill: #55a868; stroke: #55a868; stroke-width: 2"/>
     <use xlink:href="#m8a94f34a2a" x="442.8" y="174.125432" style="fill: #55a868; stroke: #55a868; stroke-width: 2"/>
     <use xlink:href="#m8a94f34a2a" x="463.090909" y="160.451615" style="fill: #55a868; stroke: #55a868; stroke-width: 2"/>
     <use xlink:href="#m8a94f34a2a" x="483.381818" y="158.047972" style="fill: #55a868; stroke: #55a868; stroke-width: 2"/>
     <use xlink:href="#m8a94f34a2a" x="503.672727" y="159.839992" style="fill: #55a868; stroke: #55a868; stroke-width: 2"/>
     <use xlink:href="#m8a94f34a2a" x="523.963636" y="160.885306" style="fill: #55a868; stroke: #55a868; stroke-width: 2"/>
     <use xlink:href="#m8a94f34a2a" x="544.254545" y="161.333341" style="fill: #55a868; stroke: #55a868; stroke-width: 2"/>
     <use xlink:href="#m8a94f34a2a" x="564.545455" y="152.521822" style="fill: #55a868; stroke: #55a868; stroke-width: 2"/>
     <use xlink:href="#m8a94f34a2a" x="584.836364" y="160.554076" style="fill: #55a868; stroke: #55a868; stroke-width: 2"/>
     <use xlink:href="#m8a94f34a2a" x="605.127273" y="160.661743" style="fill: #55a868; stroke: #55a868; stroke-width: 2"/>
     <use xlink:href="#m8a94f34a2a" x="625.418182" y="160.430674" style="fill: #55a868; stroke: #55a868; stroke-width: 2"/>
     <use xlink:href="#m8a94f34a2a" x="645.709091" y="159.774387" style="fill: #55a868; stroke: #55a868; stroke-width: 2"/>
     <use xlink:href="#m8a94f34a2a" x="666" y="158.51489" style="fill: #55a868; stroke: #55a868; stroke-width: 2"/>
     <use xlink:href="#m8a94f34a2a" x="686.290909" y="158.462055" style="fill: #55a868; stroke: #55a868; stroke-width: 2"/>
     <use xlink:href="#m8a94f34a2a" x="706.581818" y="158.926431" style="fill: #55a868; stroke: #55a868; stroke-width: 2"/>
     <use xlink:href="#m8a94f34a2a" x="726.872727" y="161.09495" style="fill: #55a868; stroke: #55a868; stroke-width: 2"/>
     <use xlink:href="#m8a94f34a2a" x="747.163636" y="157.385936" style="fill: #55a868; stroke: #55a868; stroke-width: 2"/>
    </g>
   </g>
   <g id="line2d_27">
    <path d="M 138.436364 66.96 
L 158.727273 339.349573 
L 179.018182 220.201032 
L 199.309091 191.534711 
L 219.6 171.646986 
L 239.890909 161.494266 
L 260.181818 147.596462 
L 280.472727 153.221442 
L 300.763636 153.526225 
L 321.054545 150.440634 
L 341.345455 158.405226 
L 361.636364 163.256086 
L 381.927273 153.546439 
L 402.218182 166.289325 
L 422.509091 164.787987 
L 442.8 165.090288 
L 463.090909 160.381713 
L 483.381818 162.181237 
L 503.672727 160.208866 
L 523.963636 161.078186 
L 544.254545 157.739316 
L 564.545455 158.061529 
L 584.836364 162.205385 
L 605.127273 168.949757 
L 625.418182 159.099036 
L 645.709091 158.580252 
L 666 156.743992 
L 686.290909 156.007636 
L 706.581818 153.373712 
L 726.872727 155.446488 
L 747.163636 158.764054 
" clip-path="url(#pf0be3b3494)" style="fill: none; stroke: #4c72b0; stroke-opacity: 0.5; stroke-width: 4; stroke-linecap: round"/>
   </g>
   <g id="line2d_28">
    <path d="M 138.436364 67.466075 
L 158.727273 325.880135 
L 179.018182 245.137096 
L 199.309091 204.980547 
L 219.6 184.29195 
L 239.890909 166.062917 
L 260.181818 157.730299 
L 280.472727 167.072161 
L 300.763636 171.859232 
L 321.054545 165.190571 
L 341.345455 158.929336 
L 361.636364 159.841868 
L 381.927273 165.518715 
L 402.218182 181.546245 
L 422.509091 187.437456 
L 442.8 173.751777 
L 463.090909 169.44052 
L 483.381818 173.912641 
L 503.672727 172.830288 
L 523.963636 182.841449 
L 544.254545 171.587252 
L 564.545455 164.416934 
L 584.836364 173.915001 
L 605.127273 170.315953 
L 625.418182 177.303921 
L 645.709091 169.949137 
L 666 172.454635 
L 686.290909 170.588478 
L 706.581818 169.366927 
L 726.872727 175.300321 
L 747.163636 169.511995 
" clip-path="url(#pf0be3b3494)" style="fill: none; stroke: #dd8452; stroke-opacity: 0.5; stroke-width: 4; stroke-linecap: round"/>
   </g>
   <g id="line2d_29">
    <path d="M 138.436364 67.225505 
L 158.727273 369.36 
L 179.018182 360.689313 
L 199.309091 236.678231 
L 219.6 199.205232 
L 239.890909 181.911003 
L 260.181818 165.87724 
L 280.472727 157.265197 
L 300.763636 166.306634 
L 321.054545 158.499578 
L 341.345455 171.223764 
L 361.636364 167.797926 
L 381.927273 165.086112 
L 402.218182 165.065414 
L 422.509091 178.089844 
L 442.8 174.125432 
L 463.090909 160.451615 
L 483.381818 158.047972 
L 503.672727 159.839992 
L 523.963636 160.885306 
L 544.254545 161.333341 
L 564.545455 152.521822 
L 584.836364 160.554076 
L 605.127273 160.661743 
L 625.418182 160.430674 
L 645.709091 159.774387 
L 666 158.51489 
L 686.290909 158.462055 
L 706.581818 158.926431 
L 726.872727 161.09495 
L 747.163636 157.385936 
" clip-path="url(#pf0be3b3494)" style="fill: none; stroke: #55a868; stroke-opacity: 0.5; stroke-width: 4; stroke-linecap: round"/>
   </g>
   <g id="patch_3">
    <path d="M 108 384.48 
L 108 51.84 
" style="fill: none; stroke: #262626; stroke-width: 0.8; stroke-linejoin: miter; stroke-linecap: square"/>
   </g>
   <g id="patch_4">
    <path d="M 777.6 384.48 
L 777.6 51.84 
" style="fill: none; stroke: #262626; stroke-width: 0.8; stroke-linejoin: miter; stroke-linecap: square"/>
   </g>
   <g id="patch_5">
    <path d="M 108 384.48 
L 777.6 384.48 
" style="fill: none; stroke: #262626; stroke-width: 0.8; stroke-linejoin: miter; stroke-linecap: square"/>
   </g>
   <g id="patch_6">
    <path d="M 108 51.84 
L 777.6 51.84 
" style="fill: none; stroke: #262626; stroke-width: 0.8; stroke-linejoin: miter; stroke-linecap: square"/>
   </g>
   <g id="legend_1">
    <g id="patch_7">
     <path d="M 576.740625 112.670625 
L 769.2 112.670625 
Q 771.6 112.670625 771.6 110.270625 
L 771.6 60.24 
Q 771.6 57.84 769.2 57.84 
L 576.740625 57.84 
Q 574.340625 57.84 574.340625 60.24 
L 574.340625 110.270625 
Q 574.340625 112.670625 576.740625 112.670625 
z
" style="fill: #ffffff; opacity: 0.8; stroke: #cccccc; stroke-linejoin: miter"/>
    </g>
    <g id="PathCollection_4">
     <g>
      <use xlink:href="#m23c2ca0f06" x="591.140625" y="68.233125" style="fill: #4c72b0; stroke: #4c72b0; stroke-width: 2"/>
     </g>
    </g>
    <g id="text_16">
     <!-- Noised Operations, Statistics -->
     <g style="fill: #262626" transform="translate(612.740625 71.383125) scale(0.12 -0.12)">
      <defs>
       <path id="ArialMT-4e" d="M 488 0 
L 488 4581 
L 1109 4581 
L 3516 984 
L 3516 4581 
L 4097 4581 
L 4097 0 
L 3475 0 
L 1069 3600 
L 1069 0 
L 488 0 
z
" transform="scale(0.015625)"/>
       <path id="ArialMT-69" d="M 425 3934 
L 425 4581 
L 988 4581 
L 988 3934 
L 425 3934 
z
M 425 0 
L 425 3319 
L 988 3319 
L 988 0 
L 425 0 
z
" transform="scale(0.015625)"/>
       <path id="ArialMT-73" d="M 197 991 
L 753 1078 
Q 800 744 1014 566 
Q 1228 388 1613 388 
Q 2000 388 2187 545 
Q 2375 703 2375 916 
Q 2375 1106 2209 1216 
Q 2094 1291 1634 1406 
Q 1016 1563 777 1677 
Q 538 1791 414 1992 
Q 291 2194 291 2438 
Q 291 2659 392 2848 
Q 494 3038 669 3163 
Q 800 3259 1026 3326 
Q 1253 3394 1513 3394 
Q 1903 3394 2198 3281 
Q 2494 3169 2634 2976 
Q 2775 2784 2828 2463 
L 2278 2388 
Q 2241 2644 2061 2787 
Q 1881 2931 1553 2931 
Q 1166 2931 1000 2803 
Q 834 2675 834 2503 
Q 834 2394 903 2306 
Q 972 2216 1119 2156 
Q 1203 2125 1616 2013 
Q 2213 1853 2448 1751 
Q 2684 1650 2818 1456 
Q 2953 1263 2953 975 
Q 2953 694 2789 445 
Q 2625 197 2315 61 
Q 2006 -75 1616 -75 
Q 969 -75 630 194 
Q 291 463 197 991 
z
" transform="scale(0.015625)"/>
       <path id="ArialMT-64" d="M 2575 0 
L 2575 419 
Q 2259 -75 1647 -75 
Q 1250 -75 917 144 
Q 584 363 401 755 
Q 219 1147 219 1656 
Q 219 2153 384 2558 
Q 550 2963 881 3178 
Q 1213 3394 1622 3394 
Q 1922 3394 2156 3267 
Q 2391 3141 2538 2938 
L 2538 4581 
L 3097 4581 
L 3097 0 
L 2575 0 
z
M 797 1656 
Q 797 1019 1065 703 
Q 1334 388 1700 388 
Q 2069 388 2326 689 
Q 2584 991 2584 1609 
Q 2584 2291 2321 2609 
Q 2059 2928 1675 2928 
Q 1300 2928 1048 2622 
Q 797 2316 797 1656 
z
" transform="scale(0.015625)"/>
       <path id="ArialMT-20" transform="scale(0.015625)"/>
       <path id="ArialMT-4f" d="M 309 2231 
Q 309 3372 921 4017 
Q 1534 4663 2503 4663 
Q 3138 4663 3647 4359 
Q 4156 4056 4423 3514 
Q 4691 2972 4691 2284 
Q 4691 1588 4409 1038 
Q 4128 488 3612 205 
Q 3097 -78 2500 -78 
Q 1853 -78 1343 234 
Q 834 547 571 1087 
Q 309 1628 309 2231 
z
M 934 2222 
Q 934 1394 1379 917 
Q 1825 441 2497 441 
Q 3181 441 3623 922 
Q 4066 1403 4066 2288 
Q 4066 2847 3877 3264 
Q 3688 3681 3323 3911 
Q 2959 4141 2506 4141 
Q 1863 4141 1398 3698 
Q 934 3256 934 2222 
z
" transform="scale(0.015625)"/>
       <path id="ArialMT-72" d="M 416 0 
L 416 3319 
L 922 3319 
L 922 2816 
Q 1116 3169 1280 3281 
Q 1444 3394 1641 3394 
Q 1925 3394 2219 3213 
L 2025 2691 
Q 1819 2813 1613 2813 
Q 1428 2813 1281 2702 
Q 1134 2591 1072 2394 
Q 978 2094 978 1738 
L 978 0 
L 416 0 
z
" transform="scale(0.015625)"/>
       <path id="ArialMT-61" d="M 2588 409 
Q 2275 144 1986 34 
Q 1697 -75 1366 -75 
Q 819 -75 525 192 
Q 231 459 231 875 
Q 231 1119 342 1320 
Q 453 1522 633 1644 
Q 813 1766 1038 1828 
Q 1203 1872 1538 1913 
Q 2219 1994 2541 2106 
Q 2544 2222 2544 2253 
Q 2544 2597 2384 2738 
Q 2169 2928 1744 2928 
Q 1347 2928 1158 2789 
Q 969 2650 878 2297 
L 328 2372 
Q 403 2725 575 2942 
Q 747 3159 1072 3276 
Q 1397 3394 1825 3394 
Q 2250 3394 2515 3294 
Q 2781 3194 2906 3042 
Q 3031 2891 3081 2659 
Q 3109 2516 3109 2141 
L 3109 1391 
Q 3109 606 3145 398 
Q 3181 191 3288 0 
L 2700 0 
Q 2613 175 2588 409 
z
M 2541 1666 
Q 2234 1541 1622 1453 
Q 1275 1403 1131 1340 
Q 988 1278 909 1158 
Q 831 1038 831 891 
Q 831 666 1001 516 
Q 1172 366 1500 366 
Q 1825 366 2078 508 
Q 2331 650 2450 897 
Q 2541 1088 2541 1459 
L 2541 1666 
z
" transform="scale(0.015625)"/>
       <path id="ArialMT-74" d="M 1650 503 
L 1731 6 
Q 1494 -44 1306 -44 
Q 1000 -44 831 53 
Q 663 150 594 308 
Q 525 466 525 972 
L 525 2881 
L 113 2881 
L 113 3319 
L 525 3319 
L 525 4141 
L 1084 4478 
L 1084 3319 
L 1650 3319 
L 1650 2881 
L 1084 2881 
L 1084 941 
Q 1084 700 1114 631 
Q 1144 563 1211 522 
Q 1278 481 1403 481 
Q 1497 481 1650 503 
z
" transform="scale(0.015625)"/>
       <path id="ArialMT-6e" d="M 422 0 
L 422 3319 
L 928 3319 
L 928 2847 
Q 1294 3394 1984 3394 
Q 2284 3394 2536 3286 
Q 2788 3178 2913 3003 
Q 3038 2828 3088 2588 
Q 3119 2431 3119 2041 
L 3119 0 
L 2556 0 
L 2556 2019 
Q 2556 2363 2490 2533 
Q 2425 2703 2258 2804 
Q 2091 2906 1866 2906 
Q 1506 2906 1245 2678 
Q 984 2450 984 1813 
L 984 0 
L 422 0 
z
" transform="scale(0.015625)"/>
       <path id="ArialMT-2c" d="M 569 0 
L 569 641 
L 1209 641 
L 1209 0 
Q 1209 -353 1084 -570 
Q 959 -788 688 -906 
L 531 -666 
Q 709 -588 793 -436 
Q 878 -284 888 0 
L 569 0 
z
" transform="scale(0.015625)"/>
      </defs>
      <use xlink:href="#ArialMT-4e"/>
      <use xlink:href="#ArialMT-6f" x="72.216797"/>
      <use xlink:href="#ArialMT-69" x="127.832031"/>
      <use xlink:href="#ArialMT-73" x="150.048828"/>
      <use xlink:href="#ArialMT-65" x="200.048828"/>
      <use xlink:href="#ArialMT-64" x="255.664062"/>
      <use xlink:href="#ArialMT-20" x="311.279297"/>
      <use xlink:href="#ArialMT-4f" x="339.0625"/>
      <use xlink:href="#ArialMT-70" x="416.845703"/>
      <use xlink:href="#ArialMT-65" x="472.460938"/>
      <use xlink:href="#ArialMT-72" x="528.076172"/>
      <use xlink:href="#ArialMT-61" x="561.376953"/>
      <use xlink:href="#ArialMT-74" x="616.992188"/>
      <use xlink:href="#ArialMT-69" x="644.775391"/>
      <use xlink:href="#ArialMT-6f" x="666.992188"/>
      <use xlink:href="#ArialMT-6e" x="722.607422"/>
      <use xlink:href="#ArialMT-73" x="778.222656"/>
      <use xlink:href="#ArialMT-2c" x="828.222656"/>
      <use xlink:href="#ArialMT-20" x="856.005859"/>
      <use xlink:href="#ArialMT-53" x="883.789062"/>
      <use xlink:href="#ArialMT-74" x="950.488281"/>
      <use xlink:href="#ArialMT-61" x="978.271484"/>
      <use xlink:href="#ArialMT-74" x="1033.886719"/>
      <use xlink:href="#ArialMT-69" x="1061.669922"/>
      <use xlink:href="#ArialMT-73" x="1083.886719"/>
      <use xlink:href="#ArialMT-74" x="1133.886719"/>
      <use xlink:href="#ArialMT-69" x="1161.669922"/>
      <use xlink:href="#ArialMT-63" x="1183.886719"/>
      <use xlink:href="#ArialMT-73" x="1233.886719"/>
     </g>
    </g>
    <g id="PathCollection_5">
     <g>
      <use xlink:href="#m6a20be2923" x="591.140625" y="85.36125" style="fill: #dd8452; stroke: #dd8452; stroke-width: 2"/>
     </g>
    </g>
    <g id="text_17">
     <!-- Noised Operations -->
     <g style="fill: #262626" transform="translate(612.740625 88.51125) scale(0.12 -0.12)">
      <use xlink:href="#ArialMT-4e"/>
      <use xlink:href="#ArialMT-6f" x="72.216797"/>
      <use xlink:href="#ArialMT-69" x="127.832031"/>
      <use xlink:href="#ArialMT-73" x="150.048828"/>
      <use xlink:href="#ArialMT-65" x="200.048828"/>
      <use xlink:href="#ArialMT-64" x="255.664062"/>
      <use xlink:href="#ArialMT-20" x="311.279297"/>
      <use xlink:href="#ArialMT-4f" x="339.0625"/>
      <use xlink:href="#ArialMT-70" x="416.845703"/>
      <use xlink:href="#ArialMT-65" x="472.460938"/>
      <use xlink:href="#ArialMT-72" x="528.076172"/>
      <use xlink:href="#ArialMT-61" x="561.376953"/>
      <use xlink:href="#ArialMT-74" x="616.992188"/>
      <use xlink:href="#ArialMT-69" x="644.775391"/>
      <use xlink:href="#ArialMT-6f" x="666.992188"/>
      <use xlink:href="#ArialMT-6e" x="722.607422"/>
      <use xlink:href="#ArialMT-73" x="778.222656"/>
     </g>
    </g>
    <g id="PathCollection_6">
     <g>
      <use xlink:href="#m8a94f34a2a" x="591.140625" y="102.335625" style="fill: #55a868; stroke: #55a868; stroke-width: 2"/>
     </g>
    </g>
    <g id="text_18">
     <!-- Noised Statistics -->
     <g style="fill: #262626" transform="translate(612.740625 105.485625) scale(0.12 -0.12)">
      <use xlink:href="#ArialMT-4e"/>
      <use xlink:href="#ArialMT-6f" x="72.216797"/>
      <use xlink:href="#ArialMT-69" x="127.832031"/>
      <use xlink:href="#ArialMT-73" x="150.048828"/>
      <use xlink:href="#ArialMT-65" x="200.048828"/>
      <use xlink:href="#ArialMT-64" x="255.664062"/>
      <use xlink:href="#ArialMT-20" x="311.279297"/>
      <use xlink:href="#ArialMT-53" x="339.0625"/>
      <use xlink:href="#ArialMT-74" x="405.761719"/>
      <use xlink:href="#ArialMT-61" x="433.544922"/>
      <use xlink:href="#ArialMT-74" x="489.160156"/>
      <use xlink:href="#ArialMT-69" x="516.943359"/>
      <use xlink:href="#ArialMT-73" x="539.160156"/>
      <use xlink:href="#ArialMT-74" x="589.160156"/>
      <use xlink:href="#ArialMT-69" x="616.943359"/>
      <use xlink:href="#ArialMT-63" x="639.160156"/>
      <use xlink:href="#ArialMT-73" x="689.160156"/>
     </g>
    </g>
   </g>
  </g>
 </g>
 <defs>
  <clipPath id="pf0be3b3494">
   <rect x="108" y="51.84" width="669.6" height="332.64"/>
  </clipPath>
 </defs>
</svg>
