<?xml version="1.0" encoding="utf-8" standalone="no"?>
<!DOCTYPE svg PUBLIC "-//W3C//DTD SVG 1.1//EN"
  "http://www.w3.org/Graphics/SVG/1.1/DTD/svg11.dtd">
<svg xmlns:xlink="http://www.w3.org/1999/xlink" width="1440pt" height="720pt" viewBox="0 0 1440 720" xmlns="http://www.w3.org/2000/svg" version="1.1">
 <metadata>
  <rdf:RDF xmlns:dc="http://purl.org/dc/elements/1.1/" xmlns:cc="http://creativecommons.org/ns#" xmlns:rdf="http://www.w3.org/1999/02/22-rdf-syntax-ns#">
   <cc:Work>
    <dc:type rdf:resource="http://purl.org/dc/dcmitype/StillImage"/>
    <dc:date>2024-08-30T18:05:47.855873</dc:date>
    <dc:format>image/svg+xml</dc:format>
    <dc:creator>
     <cc:Agent>
      <dc:title>Matplotlib v3.9.2, https://matplotlib.org/</dc:title>
     </cc:Agent>
    </dc:creator>
   </cc:Work>
  </rdf:RDF>
 </metadata>
 <defs>
  <style type="text/css">*{stroke-linejoin: round; stroke-linecap: butt}</style>
 </defs>
 <g id="figure_1">
  <g id="patch_1">
   <path d="M 0 720 
L 1440 720 
L 1440 0 
L 0 0 
z
" style="fill: #ffffff"/>
  </g>
  <g id="axes_1">
   <g id="patch_2">
    <path d="M 180 640.8 
L 1296 640.8 
L 1296 86.4 
L 180 86.4 
z
" style="fill: #ffffff"/>
   </g>
   <g id="matplotlib.axis_1">
    <g id="xtick_1">
     <g id="line2d_1">
      <path d="M 247.090909 640.8 
L 247.090909 86.4 
" clip-path="url(#p108e1d0f4d)" style="fill: none; stroke: #808080; stroke-opacity: 0.3; stroke-width: 0.8; stroke-linecap: round"/>
     </g>
     <g id="line2d_2">
      <defs>
       <path id="m9105f364fc" d="M 0 0 
L 0 3.5 
" style="stroke: #262626; stroke-width: 0.8"/>
      </defs>
      <g>
       <use xlink:href="#m9105f364fc" x="247.090909" y="640.8" style="fill: #262626; stroke: #262626; stroke-width: 0.8"/>
      </g>
     </g>
     <g id="text_1">
      <!-- q01 -->
      <g style="fill: #262626" transform="translate(249.69794 665.029688) rotate(-90) scale(0.1 -0.1)">
       <defs>
        <path id="Arial-BoldMT-71" d="M 2628 -1263 
L 2628 406 
Q 2456 184 2200 54 
Q 1944 -75 1647 -75 
Q 1081 -75 716 350 
Q 284 847 284 1697 
Q 284 2497 689 2945 
Q 1094 3394 1694 3394 
Q 2025 3394 2267 3253 
Q 2509 3113 2697 2828 
L 2697 3319 
L 3506 3319 
L 3506 -1263 
L 2628 -1263 
z
M 2656 1700 
Q 2656 2209 2448 2457 
Q 2241 2706 1928 2706 
Q 1609 2706 1395 2453 
Q 1181 2200 1181 1650 
Q 1181 1103 1387 861 
Q 1594 619 1897 619 
Q 2200 619 2428 891 
Q 2656 1163 2656 1700 
z
" transform="scale(0.015625)"/>
        <path id="Arial-BoldMT-30" d="M 1756 4600 
Q 2422 4600 2797 4125 
Q 3244 3563 3244 2259 
Q 3244 959 2794 391 
Q 2422 -78 1756 -78 
Q 1088 -78 678 436 
Q 269 950 269 2269 
Q 269 3563 719 4131 
Q 1091 4600 1756 4600 
z
M 1756 3872 
Q 1597 3872 1472 3770 
Q 1347 3669 1278 3406 
Q 1188 3066 1188 2259 
Q 1188 1453 1269 1151 
Q 1350 850 1473 750 
Q 1597 650 1756 650 
Q 1916 650 2041 751 
Q 2166 853 2234 1116 
Q 2325 1453 2325 2259 
Q 2325 3066 2244 3367 
Q 2163 3669 2039 3770 
Q 1916 3872 1756 3872 
z
" transform="scale(0.015625)"/>
        <path id="Arial-BoldMT-31" d="M 2519 0 
L 1641 0 
L 1641 3309 
Q 1159 2859 506 2644 
L 506 3441 
Q 850 3553 1253 3867 
Q 1656 4181 1806 4600 
L 2519 4600 
L 2519 0 
z
" transform="scale(0.015625)"/>
       </defs>
       <use xlink:href="#Arial-BoldMT-71"/>
       <use xlink:href="#Arial-BoldMT-30" x="61.083984"/>
       <use xlink:href="#Arial-BoldMT-31" x="116.699219"/>
      </g>
     </g>
    </g>
    <g id="xtick_2">
     <g id="line2d_3">
      <path d="M 293.844156 640.8 
L 293.844156 86.4 
" clip-path="url(#p108e1d0f4d)" style="fill: none; stroke: #808080; stroke-opacity: 0.3; stroke-width: 0.8; stroke-linecap: round"/>
     </g>
     <g id="line2d_4">
      <g>
       <use xlink:href="#m9105f364fc" x="293.844156" y="640.8" style="fill: #262626; stroke: #262626; stroke-width: 0.8"/>
      </g>
     </g>
     <g id="text_2">
      <!-- q02 -->
      <g style="fill: #262626" transform="translate(296.451187 665.029688) rotate(-90) scale(0.1 -0.1)">
       <defs>
        <path id="Arial-BoldMT-32" d="M 3238 816 
L 3238 0 
L 159 0 
Q 209 463 459 877 
Q 709 1291 1447 1975 
Q 2041 2528 2175 2725 
Q 2356 2997 2356 3263 
Q 2356 3556 2198 3714 
Q 2041 3872 1763 3872 
Q 1488 3872 1325 3706 
Q 1163 3541 1138 3156 
L 263 3244 
Q 341 3969 753 4284 
Q 1166 4600 1784 4600 
Q 2463 4600 2850 4234 
Q 3238 3869 3238 3325 
Q 3238 3016 3127 2736 
Q 3016 2456 2775 2150 
Q 2616 1947 2200 1565 
Q 1784 1184 1673 1059 
Q 1563 934 1494 816 
L 3238 816 
z
" transform="scale(0.015625)"/>
       </defs>
       <use xlink:href="#Arial-BoldMT-71"/>
       <use xlink:href="#Arial-BoldMT-30" x="61.083984"/>
       <use xlink:href="#Arial-BoldMT-32" x="116.699219"/>
      </g>
     </g>
    </g>
    <g id="xtick_3">
     <g id="line2d_5">
      <path d="M 340.597403 640.8 
L 340.597403 86.4 
" clip-path="url(#p108e1d0f4d)" style="fill: none; stroke: #808080; stroke-opacity: 0.3; stroke-width: 0.8; stroke-linecap: round"/>
     </g>
     <g id="line2d_6">
      <g>
       <use xlink:href="#m9105f364fc" x="340.597403" y="640.8" style="fill: #262626; stroke: #262626; stroke-width: 0.8"/>
      </g>
     </g>
     <g id="text_3">
      <!-- q03 -->
      <g style="fill: #262626" transform="translate(343.204434 665.029688) rotate(-90) scale(0.1 -0.1)">
       <defs>
        <path id="Arial-BoldMT-33" d="M 241 1216 
L 1091 1319 
Q 1131 994 1309 822 
Q 1488 650 1741 650 
Q 2013 650 2198 856 
Q 2384 1063 2384 1413 
Q 2384 1744 2206 1937 
Q 2028 2131 1772 2131 
Q 1603 2131 1369 2066 
L 1466 2781 
Q 1822 2772 2009 2936 
Q 2197 3100 2197 3372 
Q 2197 3603 2059 3740 
Q 1922 3878 1694 3878 
Q 1469 3878 1309 3722 
Q 1150 3566 1116 3266 
L 306 3403 
Q 391 3819 561 4067 
Q 731 4316 1036 4458 
Q 1341 4600 1719 4600 
Q 2366 4600 2756 4188 
Q 3078 3850 3078 3425 
Q 3078 2822 2419 2463 
Q 2813 2378 3048 2084 
Q 3284 1791 3284 1375 
Q 3284 772 2843 347 
Q 2403 -78 1747 -78 
Q 1125 -78 715 280 
Q 306 638 241 1216 
z
" transform="scale(0.015625)"/>
       </defs>
       <use xlink:href="#Arial-BoldMT-71"/>
       <use xlink:href="#Arial-BoldMT-30" x="61.083984"/>
       <use xlink:href="#Arial-BoldMT-33" x="116.699219"/>
      </g>
     </g>
    </g>
    <g id="xtick_4">
     <g id="line2d_7">
      <path d="M 387.350649 640.8 
L 387.350649 86.4 
" clip-path="url(#p108e1d0f4d)" style="fill: none; stroke: #808080; stroke-opacity: 0.3; stroke-width: 0.8; stroke-linecap: round"/>
     </g>
     <g id="line2d_8">
      <g>
       <use xlink:href="#m9105f364fc" x="387.350649" y="640.8" style="fill: #262626; stroke: #262626; stroke-width: 0.8"/>
      </g>
     </g>
     <g id="text_4">
      <!-- q04 -->
      <g style="fill: #262626" transform="translate(389.957681 665.029688) rotate(-90) scale(0.1 -0.1)">
       <defs>
        <path id="Arial-BoldMT-34" d="M 1994 0 
L 1994 922 
L 119 922 
L 119 1691 
L 2106 4600 
L 2844 4600 
L 2844 1694 
L 3413 1694 
L 3413 922 
L 2844 922 
L 2844 0 
L 1994 0 
z
M 1994 1694 
L 1994 3259 
L 941 1694 
L 1994 1694 
z
" transform="scale(0.015625)"/>
       </defs>
       <use xlink:href="#Arial-BoldMT-71"/>
       <use xlink:href="#Arial-BoldMT-30" x="61.083984"/>
       <use xlink:href="#Arial-BoldMT-34" x="116.699219"/>
      </g>
     </g>
    </g>
    <g id="xtick_5">
     <g id="line2d_9">
      <path d="M 434.103896 640.8 
L 434.103896 86.4 
" clip-path="url(#p108e1d0f4d)" style="fill: none; stroke: #808080; stroke-opacity: 0.3; stroke-width: 0.8; stroke-linecap: round"/>
     </g>
     <g id="line2d_10">
      <g>
       <use xlink:href="#m9105f364fc" x="434.103896" y="640.8" style="fill: #262626; stroke: #262626; stroke-width: 0.8"/>
      </g>
     </g>
     <g id="text_5">
      <!-- q05 -->
      <g style="fill: #262626" transform="translate(436.710927 665.029688) rotate(-90) scale(0.1 -0.1)">
       <defs>
        <path id="Arial-BoldMT-35" d="M 284 1178 
L 1159 1269 
Q 1197 972 1381 798 
Q 1566 625 1806 625 
Q 2081 625 2272 848 
Q 2463 1072 2463 1522 
Q 2463 1944 2273 2155 
Q 2084 2366 1781 2366 
Q 1403 2366 1103 2031 
L 391 2134 
L 841 4519 
L 3163 4519 
L 3163 3697 
L 1506 3697 
L 1369 2919 
Q 1663 3066 1969 3066 
Q 2553 3066 2959 2641 
Q 3366 2216 3366 1538 
Q 3366 972 3038 528 
Q 2591 -78 1797 -78 
Q 1163 -78 763 262 
Q 363 603 284 1178 
z
" transform="scale(0.015625)"/>
       </defs>
       <use xlink:href="#Arial-BoldMT-71"/>
       <use xlink:href="#Arial-BoldMT-30" x="61.083984"/>
       <use xlink:href="#Arial-BoldMT-35" x="116.699219"/>
      </g>
     </g>
    </g>
    <g id="xtick_6">
     <g id="line2d_11">
      <path d="M 480.857143 640.8 
L 480.857143 86.4 
" clip-path="url(#p108e1d0f4d)" style="fill: none; stroke: #808080; stroke-opacity: 0.3; stroke-width: 0.8; stroke-linecap: round"/>
     </g>
     <g id="line2d_12">
      <g>
       <use xlink:href="#m9105f364fc" x="480.857143" y="640.8" style="fill: #262626; stroke: #262626; stroke-width: 0.8"/>
      </g>
     </g>
     <g id="text_6">
      <!-- q06 -->
      <g style="fill: #262626" transform="translate(483.464174 665.029688) rotate(-90) scale(0.1 -0.1)">
       <defs>
        <path id="Arial-BoldMT-36" d="M 3247 3459 
L 2397 3366 
Q 2366 3628 2234 3753 
Q 2103 3878 1894 3878 
Q 1616 3878 1423 3628 
Q 1231 3378 1181 2588 
Q 1509 2975 1997 2975 
Q 2547 2975 2939 2556 
Q 3331 2138 3331 1475 
Q 3331 772 2918 347 
Q 2506 -78 1859 -78 
Q 1166 -78 719 461 
Q 272 1000 272 2228 
Q 272 3488 737 4044 
Q 1203 4600 1947 4600 
Q 2469 4600 2811 4308 
Q 3153 4016 3247 3459 
z
M 1256 1544 
Q 1256 1116 1453 883 
Q 1650 650 1903 650 
Q 2147 650 2309 840 
Q 2472 1031 2472 1466 
Q 2472 1913 2297 2120 
Q 2122 2328 1859 2328 
Q 1606 2328 1431 2129 
Q 1256 1931 1256 1544 
z
" transform="scale(0.015625)"/>
       </defs>
       <use xlink:href="#Arial-BoldMT-71"/>
       <use xlink:href="#Arial-BoldMT-30" x="61.083984"/>
       <use xlink:href="#Arial-BoldMT-36" x="116.699219"/>
      </g>
     </g>
    </g>
    <g id="xtick_7">
     <g id="line2d_13">
      <path d="M 527.61039 640.8 
L 527.61039 86.4 
" clip-path="url(#p108e1d0f4d)" style="fill: none; stroke: #808080; stroke-opacity: 0.3; stroke-width: 0.8; stroke-linecap: round"/>
     </g>
     <g id="line2d_14">
      <g>
       <use xlink:href="#m9105f364fc" x="527.61039" y="640.8" style="fill: #262626; stroke: #262626; stroke-width: 0.8"/>
      </g>
     </g>
     <g id="text_7">
      <!-- q07 -->
      <g style="fill: #262626" transform="translate(530.217421 665.029688) rotate(-90) scale(0.1 -0.1)">
       <defs>
        <path id="Arial-BoldMT-37" d="M 272 3703 
L 272 4519 
L 3275 4519 
L 3275 3881 
Q 2903 3516 2518 2831 
Q 2134 2147 1932 1376 
Q 1731 606 1734 0 
L 888 0 
Q 909 950 1279 1937 
Q 1650 2925 2269 3703 
L 272 3703 
z
" transform="scale(0.015625)"/>
       </defs>
       <use xlink:href="#Arial-BoldMT-71"/>
       <use xlink:href="#Arial-BoldMT-30" x="61.083984"/>
       <use xlink:href="#Arial-BoldMT-37" x="116.699219"/>
      </g>
     </g>
    </g>
    <g id="xtick_8">
     <g id="line2d_15">
      <path d="M 574.363636 640.8 
L 574.363636 86.4 
" clip-path="url(#p108e1d0f4d)" style="fill: none; stroke: #808080; stroke-opacity: 0.3; stroke-width: 0.8; stroke-linecap: round"/>
     </g>
     <g id="line2d_16">
      <g>
       <use xlink:href="#m9105f364fc" x="574.363636" y="640.8" style="fill: #262626; stroke: #262626; stroke-width: 0.8"/>
      </g>
     </g>
     <g id="text_8">
      <!-- q08 -->
      <g style="fill: #262626" transform="translate(576.970668 665.029688) rotate(-90) scale(0.1 -0.1)">
       <defs>
        <path id="Arial-BoldMT-38" d="M 1025 2472 
Q 684 2616 529 2867 
Q 375 3119 375 3419 
Q 375 3931 733 4265 
Q 1091 4600 1750 4600 
Q 2403 4600 2764 4265 
Q 3125 3931 3125 3419 
Q 3125 3100 2959 2851 
Q 2794 2603 2494 2472 
Q 2875 2319 3073 2025 
Q 3272 1731 3272 1347 
Q 3272 713 2867 316 
Q 2463 -81 1791 -81 
Q 1166 -81 750 247 
Q 259 634 259 1309 
Q 259 1681 443 1992 
Q 628 2303 1025 2472 
z
M 1206 3356 
Q 1206 3094 1354 2947 
Q 1503 2800 1750 2800 
Q 2000 2800 2150 2948 
Q 2300 3097 2300 3359 
Q 2300 3606 2151 3754 
Q 2003 3903 1759 3903 
Q 1506 3903 1356 3753 
Q 1206 3603 1206 3356 
z
M 1125 1394 
Q 1125 1031 1311 828 
Q 1497 625 1775 625 
Q 2047 625 2225 820 
Q 2403 1016 2403 1384 
Q 2403 1706 2222 1901 
Q 2041 2097 1763 2097 
Q 1441 2097 1283 1875 
Q 1125 1653 1125 1394 
z
" transform="scale(0.015625)"/>
       </defs>
       <use xlink:href="#Arial-BoldMT-71"/>
       <use xlink:href="#Arial-BoldMT-30" x="61.083984"/>
       <use xlink:href="#Arial-BoldMT-38" x="116.699219"/>
      </g>
     </g>
    </g>
    <g id="xtick_9">
     <g id="line2d_17">
      <path d="M 621.116883 640.8 
L 621.116883 86.4 
" clip-path="url(#p108e1d0f4d)" style="fill: none; stroke: #808080; stroke-opacity: 0.3; stroke-width: 0.8; stroke-linecap: round"/>
     </g>
     <g id="line2d_18">
      <g>
       <use xlink:href="#m9105f364fc" x="621.116883" y="640.8" style="fill: #262626; stroke: #262626; stroke-width: 0.8"/>
      </g>
     </g>
     <g id="text_9">
      <!-- q09 -->
      <g style="fill: #262626" transform="translate(623.723914 665.029688) rotate(-90) scale(0.1 -0.1)">
       <defs>
        <path id="Arial-BoldMT-39" d="M 291 1059 
L 1141 1153 
Q 1172 894 1303 769 
Q 1434 644 1650 644 
Q 1922 644 2112 894 
Q 2303 1144 2356 1931 
Q 2025 1547 1528 1547 
Q 988 1547 595 1964 
Q 203 2381 203 3050 
Q 203 3747 617 4173 
Q 1031 4600 1672 4600 
Q 2369 4600 2816 4061 
Q 3263 3522 3263 2288 
Q 3263 1031 2797 475 
Q 2331 -81 1584 -81 
Q 1047 -81 715 205 
Q 384 491 291 1059 
z
M 2278 2978 
Q 2278 3403 2083 3637 
Q 1888 3872 1631 3872 
Q 1388 3872 1227 3680 
Q 1066 3488 1066 3050 
Q 1066 2606 1241 2398 
Q 1416 2191 1678 2191 
Q 1931 2191 2104 2391 
Q 2278 2591 2278 2978 
z
" transform="scale(0.015625)"/>
       </defs>
       <use xlink:href="#Arial-BoldMT-71"/>
       <use xlink:href="#Arial-BoldMT-30" x="61.083984"/>
       <use xlink:href="#Arial-BoldMT-39" x="116.699219"/>
      </g>
     </g>
    </g>
    <g id="xtick_10">
     <g id="line2d_19">
      <path d="M 667.87013 640.8 
L 667.87013 86.4 
" clip-path="url(#p108e1d0f4d)" style="fill: none; stroke: #808080; stroke-opacity: 0.3; stroke-width: 0.8; stroke-linecap: round"/>
     </g>
     <g id="line2d_20">
      <g>
       <use xlink:href="#m9105f364fc" x="667.87013" y="640.8" style="fill: #262626; stroke: #262626; stroke-width: 0.8"/>
      </g>
     </g>
     <g id="text_10">
      <!-- q10 -->
      <g style="fill: #262626" transform="translate(670.477161 665.029688) rotate(-90) scale(0.1 -0.1)">
       <use xlink:href="#Arial-BoldMT-71"/>
       <use xlink:href="#Arial-BoldMT-31" x="61.083984"/>
       <use xlink:href="#Arial-BoldMT-30" x="116.699219"/>
      </g>
     </g>
    </g>
    <g id="xtick_11">
     <g id="line2d_21">
      <path d="M 714.623377 640.8 
L 714.623377 86.4 
" clip-path="url(#p108e1d0f4d)" style="fill: none; stroke: #808080; stroke-opacity: 0.3; stroke-width: 0.8; stroke-linecap: round"/>
     </g>
     <g id="line2d_22">
      <g>
       <use xlink:href="#m9105f364fc" x="714.623377" y="640.8" style="fill: #262626; stroke: #262626; stroke-width: 0.8"/>
      </g>
     </g>
     <g id="text_11">
      <!-- q11 -->
      <g style="fill: #262626" transform="translate(717.230408 664.479687) rotate(-90) scale(0.1 -0.1)">
       <use xlink:href="#Arial-BoldMT-71"/>
       <use xlink:href="#Arial-BoldMT-31" x="61.083984"/>
       <use xlink:href="#Arial-BoldMT-31" x="111.199219"/>
      </g>
     </g>
    </g>
    <g id="xtick_12">
     <g id="line2d_23">
      <path d="M 761.376623 640.8 
L 761.376623 86.4 
" clip-path="url(#p108e1d0f4d)" style="fill: none; stroke: #808080; stroke-opacity: 0.3; stroke-width: 0.8; stroke-linecap: round"/>
     </g>
     <g id="line2d_24">
      <g>
       <use xlink:href="#m9105f364fc" x="761.376623" y="640.8" style="fill: #262626; stroke: #262626; stroke-width: 0.8"/>
      </g>
     </g>
     <g id="text_12">
      <!-- q12 -->
      <g style="fill: #262626" transform="translate(763.983655 665.029688) rotate(-90) scale(0.1 -0.1)">
       <use xlink:href="#Arial-BoldMT-71"/>
       <use xlink:href="#Arial-BoldMT-31" x="61.083984"/>
       <use xlink:href="#Arial-BoldMT-32" x="116.699219"/>
      </g>
     </g>
    </g>
    <g id="xtick_13">
     <g id="line2d_25">
      <path d="M 808.12987 640.8 
L 808.12987 86.4 
" clip-path="url(#p108e1d0f4d)" style="fill: none; stroke: #808080; stroke-opacity: 0.3; stroke-width: 0.8; stroke-linecap: round"/>
     </g>
     <g id="line2d_26">
      <g>
       <use xlink:href="#m9105f364fc" x="808.12987" y="640.8" style="fill: #262626; stroke: #262626; stroke-width: 0.8"/>
      </g>
     </g>
     <g id="text_13">
      <!-- q13 -->
      <g style="fill: #262626" transform="translate(810.736901 665.029688) rotate(-90) scale(0.1 -0.1)">
       <use xlink:href="#Arial-BoldMT-71"/>
       <use xlink:href="#Arial-BoldMT-31" x="61.083984"/>
       <use xlink:href="#Arial-BoldMT-33" x="116.699219"/>
      </g>
     </g>
    </g>
    <g id="xtick_14">
     <g id="line2d_27">
      <path d="M 854.883117 640.8 
L 854.883117 86.4 
" clip-path="url(#p108e1d0f4d)" style="fill: none; stroke: #808080; stroke-opacity: 0.3; stroke-width: 0.8; stroke-linecap: round"/>
     </g>
     <g id="line2d_28">
      <g>
       <use xlink:href="#m9105f364fc" x="854.883117" y="640.8" style="fill: #262626; stroke: #262626; stroke-width: 0.8"/>
      </g>
     </g>
     <g id="text_14">
      <!-- q14 -->
      <g style="fill: #262626" transform="translate(857.490148 665.029688) rotate(-90) scale(0.1 -0.1)">
       <use xlink:href="#Arial-BoldMT-71"/>
       <use xlink:href="#Arial-BoldMT-31" x="61.083984"/>
       <use xlink:href="#Arial-BoldMT-34" x="116.699219"/>
      </g>
     </g>
    </g>
    <g id="xtick_15">
     <g id="line2d_29">
      <path d="M 901.636364 640.8 
L 901.636364 86.4 
" clip-path="url(#p108e1d0f4d)" style="fill: none; stroke: #808080; stroke-opacity: 0.3; stroke-width: 0.8; stroke-linecap: round"/>
     </g>
     <g id="line2d_30">
      <g>
       <use xlink:href="#m9105f364fc" x="901.636364" y="640.8" style="fill: #262626; stroke: #262626; stroke-width: 0.8"/>
      </g>
     </g>
     <g id="text_15">
      <!-- q15 -->
      <g style="fill: #262626" transform="translate(904.243395 665.029688) rotate(-90) scale(0.1 -0.1)">
       <use xlink:href="#Arial-BoldMT-71"/>
       <use xlink:href="#Arial-BoldMT-31" x="61.083984"/>
       <use xlink:href="#Arial-BoldMT-35" x="116.699219"/>
      </g>
     </g>
    </g>
    <g id="xtick_16">
     <g id="line2d_31">
      <path d="M 948.38961 640.8 
L 948.38961 86.4 
" clip-path="url(#p108e1d0f4d)" style="fill: none; stroke: #808080; stroke-opacity: 0.3; stroke-width: 0.8; stroke-linecap: round"/>
     </g>
     <g id="line2d_32">
      <g>
       <use xlink:href="#m9105f364fc" x="948.38961" y="640.8" style="fill: #262626; stroke: #262626; stroke-width: 0.8"/>
      </g>
     </g>
     <g id="text_16">
      <!-- q16 -->
      <g style="fill: #262626" transform="translate(950.996642 665.029688) rotate(-90) scale(0.1 -0.1)">
       <use xlink:href="#Arial-BoldMT-71"/>
       <use xlink:href="#Arial-BoldMT-31" x="61.083984"/>
       <use xlink:href="#Arial-BoldMT-36" x="116.699219"/>
      </g>
     </g>
    </g>
    <g id="xtick_17">
     <g id="line2d_33">
      <path d="M 995.142857 640.8 
L 995.142857 86.4 
" clip-path="url(#p108e1d0f4d)" style="fill: none; stroke: #808080; stroke-opacity: 0.3; stroke-width: 0.8; stroke-linecap: round"/>
     </g>
     <g id="line2d_34">
      <g>
       <use xlink:href="#m9105f364fc" x="995.142857" y="640.8" style="fill: #262626; stroke: #262626; stroke-width: 0.8"/>
      </g>
     </g>
     <g id="text_17">
      <!-- q17 -->
      <g style="fill: #262626" transform="translate(997.749888 665.029688) rotate(-90) scale(0.1 -0.1)">
       <use xlink:href="#Arial-BoldMT-71"/>
       <use xlink:href="#Arial-BoldMT-31" x="61.083984"/>
       <use xlink:href="#Arial-BoldMT-37" x="116.699219"/>
      </g>
     </g>
    </g>
    <g id="xtick_18">
     <g id="line2d_35">
      <path d="M 1041.896104 640.8 
L 1041.896104 86.4 
" clip-path="url(#p108e1d0f4d)" style="fill: none; stroke: #808080; stroke-opacity: 0.3; stroke-width: 0.8; stroke-linecap: round"/>
     </g>
     <g id="line2d_36">
      <g>
       <use xlink:href="#m9105f364fc" x="1041.896104" y="640.8" style="fill: #262626; stroke: #262626; stroke-width: 0.8"/>
      </g>
     </g>
     <g id="text_18">
      <!-- q18 -->
      <g style="fill: #262626" transform="translate(1044.503135 665.029688) rotate(-90) scale(0.1 -0.1)">
       <use xlink:href="#Arial-BoldMT-71"/>
       <use xlink:href="#Arial-BoldMT-31" x="61.083984"/>
       <use xlink:href="#Arial-BoldMT-38" x="116.699219"/>
      </g>
     </g>
    </g>
    <g id="xtick_19">
     <g id="line2d_37">
      <path d="M 1088.649351 640.8 
L 1088.649351 86.4 
" clip-path="url(#p108e1d0f4d)" style="fill: none; stroke: #808080; stroke-opacity: 0.3; stroke-width: 0.8; stroke-linecap: round"/>
     </g>
     <g id="line2d_38">
      <g>
       <use xlink:href="#m9105f364fc" x="1088.649351" y="640.8" style="fill: #262626; stroke: #262626; stroke-width: 0.8"/>
      </g>
     </g>
     <g id="text_19">
      <!-- q19 -->
      <g style="fill: #262626" transform="translate(1091.256382 665.029688) rotate(-90) scale(0.1 -0.1)">
       <use xlink:href="#Arial-BoldMT-71"/>
       <use xlink:href="#Arial-BoldMT-31" x="61.083984"/>
       <use xlink:href="#Arial-BoldMT-39" x="116.699219"/>
      </g>
     </g>
    </g>
    <g id="xtick_20">
     <g id="line2d_39">
      <path d="M 1135.402597 640.8 
L 1135.402597 86.4 
" clip-path="url(#p108e1d0f4d)" style="fill: none; stroke: #808080; stroke-opacity: 0.3; stroke-width: 0.8; stroke-linecap: round"/>
     </g>
     <g id="line2d_40">
      <g>
       <use xlink:href="#m9105f364fc" x="1135.402597" y="640.8" style="fill: #262626; stroke: #262626; stroke-width: 0.8"/>
      </g>
     </g>
     <g id="text_20">
      <!-- q20 -->
      <g style="fill: #262626" transform="translate(1138.009629 665.029688) rotate(-90) scale(0.1 -0.1)">
       <use xlink:href="#Arial-BoldMT-71"/>
       <use xlink:href="#Arial-BoldMT-32" x="61.083984"/>
       <use xlink:href="#Arial-BoldMT-30" x="116.699219"/>
      </g>
     </g>
    </g>
    <g id="xtick_21">
     <g id="line2d_41">
      <path d="M 1182.155844 640.8 
L 1182.155844 86.4 
" clip-path="url(#p108e1d0f4d)" style="fill: none; stroke: #808080; stroke-opacity: 0.3; stroke-width: 0.8; stroke-linecap: round"/>
     </g>
     <g id="line2d_42">
      <g>
       <use xlink:href="#m9105f364fc" x="1182.155844" y="640.8" style="fill: #262626; stroke: #262626; stroke-width: 0.8"/>
      </g>
     </g>
     <g id="text_21">
      <!-- q21 -->
      <g style="fill: #262626" transform="translate(1184.762875 665.029688) rotate(-90) scale(0.1 -0.1)">
       <use xlink:href="#Arial-BoldMT-71"/>
       <use xlink:href="#Arial-BoldMT-32" x="61.083984"/>
       <use xlink:href="#Arial-BoldMT-31" x="116.699219"/>
      </g>
     </g>
    </g>
    <g id="xtick_22">
     <g id="line2d_43">
      <path d="M 1228.909091 640.8 
L 1228.909091 86.4 
" clip-path="url(#p108e1d0f4d)" style="fill: none; stroke: #808080; stroke-opacity: 0.3; stroke-width: 0.8; stroke-linecap: round"/>
     </g>
     <g id="line2d_44">
      <g>
       <use xlink:href="#m9105f364fc" x="1228.909091" y="640.8" style="fill: #262626; stroke: #262626; stroke-width: 0.8"/>
      </g>
     </g>
     <g id="text_22">
      <!-- q22 -->
      <g style="fill: #262626" transform="translate(1231.516122 665.029688) rotate(-90) scale(0.1 -0.1)">
       <use xlink:href="#Arial-BoldMT-71"/>
       <use xlink:href="#Arial-BoldMT-32" x="61.083984"/>
       <use xlink:href="#Arial-BoldMT-32" x="116.699219"/>
      </g>
     </g>
    </g>
    <g id="text_23">
     <!-- Query -->
     <g style="fill: #262626" transform="translate(717.577734 679.958594) scale(0.15 -0.15)">
      <defs>
       <path id="ArialMT-51" d="M 3966 491 
Q 4388 200 4744 66 
L 4566 -356 
Q 4072 -178 3581 206 
Q 3072 -78 2456 -78 
Q 1834 -78 1328 222 
Q 822 522 548 1065 
Q 275 1609 275 2291 
Q 275 2969 550 3525 
Q 825 4081 1333 4372 
Q 1841 4663 2469 4663 
Q 3103 4663 3612 4361 
Q 4122 4059 4389 3517 
Q 4656 2975 4656 2294 
Q 4656 1728 4484 1276 
Q 4313 825 3966 491 
z
M 2631 1266 
Q 3156 1119 3497 828 
Q 4031 1316 4031 2294 
Q 4031 2850 3842 3265 
Q 3653 3681 3289 3911 
Q 2925 4141 2472 4141 
Q 1794 4141 1347 3677 
Q 900 3213 900 2291 
Q 900 1397 1342 919 
Q 1784 441 2472 441 
Q 2797 441 3084 563 
Q 2800 747 2484 825 
L 2631 1266 
z
" transform="scale(0.015625)"/>
       <path id="ArialMT-75" d="M 2597 0 
L 2597 488 
Q 2209 -75 1544 -75 
Q 1250 -75 995 37 
Q 741 150 617 320 
Q 494 491 444 738 
Q 409 903 409 1263 
L 409 3319 
L 972 3319 
L 972 1478 
Q 972 1038 1006 884 
Q 1059 663 1231 536 
Q 1403 409 1656 409 
Q 1909 409 2131 539 
Q 2353 669 2445 892 
Q 2538 1116 2538 1541 
L 2538 3319 
L 3100 3319 
L 3100 0 
L 2597 0 
z
" transform="scale(0.015625)"/>
       <path id="ArialMT-65" d="M 2694 1069 
L 3275 997 
Q 3138 488 2766 206 
Q 2394 -75 1816 -75 
Q 1088 -75 661 373 
Q 234 822 234 1631 
Q 234 2469 665 2931 
Q 1097 3394 1784 3394 
Q 2450 3394 2872 2941 
Q 3294 2488 3294 1666 
Q 3294 1616 3291 1516 
L 816 1516 
Q 847 969 1125 678 
Q 1403 388 1819 388 
Q 2128 388 2347 550 
Q 2566 713 2694 1069 
z
M 847 1978 
L 2700 1978 
Q 2663 2397 2488 2606 
Q 2219 2931 1791 2931 
Q 1403 2931 1139 2672 
Q 875 2413 847 1978 
z
" transform="scale(0.015625)"/>
       <path id="ArialMT-72" d="M 416 0 
L 416 3319 
L 922 3319 
L 922 2816 
Q 1116 3169 1280 3281 
Q 1444 3394 1641 3394 
Q 1925 3394 2219 3213 
L 2025 2691 
Q 1819 2813 1613 2813 
Q 1428 2813 1281 2702 
Q 1134 2591 1072 2394 
Q 978 2094 978 1738 
L 978 0 
L 416 0 
z
" transform="scale(0.015625)"/>
       <path id="ArialMT-79" d="M 397 -1278 
L 334 -750 
Q 519 -800 656 -800 
Q 844 -800 956 -737 
Q 1069 -675 1141 -563 
Q 1194 -478 1313 -144 
Q 1328 -97 1363 -6 
L 103 3319 
L 709 3319 
L 1400 1397 
Q 1534 1031 1641 628 
Q 1738 1016 1872 1384 
L 2581 3319 
L 3144 3319 
L 1881 -56 
Q 1678 -603 1566 -809 
Q 1416 -1088 1222 -1217 
Q 1028 -1347 759 -1347 
Q 597 -1347 397 -1278 
z
" transform="scale(0.015625)"/>
      </defs>
      <use xlink:href="#ArialMT-51"/>
      <use xlink:href="#ArialMT-75" x="77.783203"/>
      <use xlink:href="#ArialMT-65" x="133.398438"/>
      <use xlink:href="#ArialMT-72" x="189.013672"/>
      <use xlink:href="#ArialMT-79" x="222.314453"/>
     </g>
    </g>
   </g>
   <g id="matplotlib.axis_2">
    <g id="ytick_1">
     <g id="line2d_45">
      <path d="M 180 483.075535 
L 1296 483.075535 
" clip-path="url(#p108e1d0f4d)" style="fill: none; stroke: #808080; stroke-opacity: 0.3; stroke-width: 0.8; stroke-linecap: round"/>
     </g>
     <g id="line2d_46">
      <defs>
       <path id="md61c730f42" d="M 0 0 
L -3.5 0 
" style="stroke: #262626; stroke-width: 0.8"/>
      </defs>
      <g>
       <use xlink:href="#md61c730f42" x="180" y="483.075535" style="fill: #262626; stroke: #262626; stroke-width: 0.8"/>
      </g>
     </g>
     <g id="text_24">
      <!-- $\mathdefault{0}$ -->
      <g style="fill: #262626" transform="translate(167.4 486.654441) scale(0.1 -0.1)">
       <defs>
        <path id="ArialMT-30" d="M 266 2259 
Q 266 3072 433 3567 
Q 600 4063 929 4331 
Q 1259 4600 1759 4600 
Q 2128 4600 2406 4451 
Q 2684 4303 2865 4023 
Q 3047 3744 3150 3342 
Q 3253 2941 3253 2259 
Q 3253 1453 3087 958 
Q 2922 463 2592 192 
Q 2263 -78 1759 -78 
Q 1097 -78 719 397 
Q 266 969 266 2259 
z
M 844 2259 
Q 844 1131 1108 757 
Q 1372 384 1759 384 
Q 2147 384 2411 759 
Q 2675 1134 2675 2259 
Q 2675 3391 2411 3762 
Q 2147 4134 1753 4134 
Q 1366 4134 1134 3806 
Q 844 3388 844 2259 
z
" transform="scale(0.015625)"/>
       </defs>
       <use xlink:href="#ArialMT-30" transform="translate(0 0.125)"/>
      </g>
     </g>
    </g>
    <g id="ytick_2">
     <g id="line2d_47">
      <path d="M 180 367.419643 
L 1296 367.419643 
" clip-path="url(#p108e1d0f4d)" style="fill: none; stroke: #808080; stroke-opacity: 0.3; stroke-width: 0.8; stroke-linecap: round"/>
     </g>
     <g id="line2d_48">
      <g>
       <use xlink:href="#md61c730f42" x="180" y="367.419643" style="fill: #262626; stroke: #262626; stroke-width: 0.8"/>
      </g>
     </g>
     <g id="text_25">
      <!-- $\mathdefault{10^{0}}$ -->
      <g style="fill: #262626" transform="translate(157.3 372.575893) scale(0.1 -0.1)">
       <defs>
        <path id="ArialMT-31" d="M 2384 0 
L 1822 0 
L 1822 3584 
Q 1619 3391 1289 3197 
Q 959 3003 697 2906 
L 697 3450 
Q 1169 3672 1522 3987 
Q 1875 4303 2022 4600 
L 2384 4600 
L 2384 0 
z
" transform="scale(0.015625)"/>
       </defs>
       <use xlink:href="#ArialMT-31" transform="translate(0 0.99375)"/>
       <use xlink:href="#ArialMT-30" transform="translate(55.615234 0.99375)"/>
       <use xlink:href="#ArialMT-30" transform="translate(112.972813 70.6875) scale(0.7)"/>
      </g>
     </g>
    </g>
    <g id="ytick_3">
     <g id="line2d_49">
      <path d="M 180 106.251751 
L 1296 106.251751 
" clip-path="url(#p108e1d0f4d)" style="fill: none; stroke: #808080; stroke-opacity: 0.3; stroke-width: 0.8; stroke-linecap: round"/>
     </g>
     <g id="line2d_50">
      <g>
       <use xlink:href="#md61c730f42" x="180" y="106.251751" style="fill: #262626; stroke: #262626; stroke-width: 0.8"/>
      </g>
     </g>
     <g id="text_26">
      <!-- $\mathdefault{10^{1}}$ -->
      <g style="fill: #262626" transform="translate(157.3 111.408001) scale(0.1 -0.1)">
       <use xlink:href="#ArialMT-31" transform="translate(0 0.99375)"/>
       <use xlink:href="#ArialMT-30" transform="translate(55.615234 0.99375)"/>
       <use xlink:href="#ArialMT-31" transform="translate(112.972813 70.6875) scale(0.7)"/>
      </g>
     </g>
    </g>
    <g id="text_27">
     <!-- Relative Boost (log scale) -->
     <g style="fill: #262626" transform="translate(150.142969 448.633594) rotate(-90) scale(0.15 -0.15)">
      <defs>
       <path id="ArialMT-52" d="M 503 0 
L 503 4581 
L 2534 4581 
Q 3147 4581 3465 4457 
Q 3784 4334 3975 4021 
Q 4166 3709 4166 3331 
Q 4166 2844 3850 2509 
Q 3534 2175 2875 2084 
Q 3116 1969 3241 1856 
Q 3506 1613 3744 1247 
L 4541 0 
L 3778 0 
L 3172 953 
Q 2906 1366 2734 1584 
Q 2563 1803 2427 1890 
Q 2291 1978 2150 2013 
Q 2047 2034 1813 2034 
L 1109 2034 
L 1109 0 
L 503 0 
z
M 1109 2559 
L 2413 2559 
Q 2828 2559 3062 2645 
Q 3297 2731 3419 2920 
Q 3541 3109 3541 3331 
Q 3541 3656 3305 3865 
Q 3069 4075 2559 4075 
L 1109 4075 
L 1109 2559 
z
" transform="scale(0.015625)"/>
       <path id="ArialMT-6c" d="M 409 0 
L 409 4581 
L 972 4581 
L 972 0 
L 409 0 
z
" transform="scale(0.015625)"/>
       <path id="ArialMT-61" d="M 2588 409 
Q 2275 144 1986 34 
Q 1697 -75 1366 -75 
Q 819 -75 525 192 
Q 231 459 231 875 
Q 231 1119 342 1320 
Q 453 1522 633 1644 
Q 813 1766 1038 1828 
Q 1203 1872 1538 1913 
Q 2219 1994 2541 2106 
Q 2544 2222 2544 2253 
Q 2544 2597 2384 2738 
Q 2169 2928 1744 2928 
Q 1347 2928 1158 2789 
Q 969 2650 878 2297 
L 328 2372 
Q 403 2725 575 2942 
Q 747 3159 1072 3276 
Q 1397 3394 1825 3394 
Q 2250 3394 2515 3294 
Q 2781 3194 2906 3042 
Q 3031 2891 3081 2659 
Q 3109 2516 3109 2141 
L 3109 1391 
Q 3109 606 3145 398 
Q 3181 191 3288 0 
L 2700 0 
Q 2613 175 2588 409 
z
M 2541 1666 
Q 2234 1541 1622 1453 
Q 1275 1403 1131 1340 
Q 988 1278 909 1158 
Q 831 1038 831 891 
Q 831 666 1001 516 
Q 1172 366 1500 366 
Q 1825 366 2078 508 
Q 2331 650 2450 897 
Q 2541 1088 2541 1459 
L 2541 1666 
z
" transform="scale(0.015625)"/>
       <path id="ArialMT-74" d="M 1650 503 
L 1731 6 
Q 1494 -44 1306 -44 
Q 1000 -44 831 53 
Q 663 150 594 308 
Q 525 466 525 972 
L 525 2881 
L 113 2881 
L 113 3319 
L 525 3319 
L 525 4141 
L 1084 4478 
L 1084 3319 
L 1650 3319 
L 1650 2881 
L 1084 2881 
L 1084 941 
Q 1084 700 1114 631 
Q 1144 563 1211 522 
Q 1278 481 1403 481 
Q 1497 481 1650 503 
z
" transform="scale(0.015625)"/>
       <path id="ArialMT-69" d="M 425 3934 
L 425 4581 
L 988 4581 
L 988 3934 
L 425 3934 
z
M 425 0 
L 425 3319 
L 988 3319 
L 988 0 
L 425 0 
z
" transform="scale(0.015625)"/>
       <path id="ArialMT-76" d="M 1344 0 
L 81 3319 
L 675 3319 
L 1388 1331 
Q 1503 1009 1600 663 
Q 1675 925 1809 1294 
L 2547 3319 
L 3125 3319 
L 1869 0 
L 1344 0 
z
" transform="scale(0.015625)"/>
       <path id="ArialMT-20" transform="scale(0.015625)"/>
       <path id="ArialMT-42" d="M 469 0 
L 469 4581 
L 2188 4581 
Q 2713 4581 3030 4442 
Q 3347 4303 3526 4014 
Q 3706 3725 3706 3409 
Q 3706 3116 3547 2856 
Q 3388 2597 3066 2438 
Q 3481 2316 3704 2022 
Q 3928 1728 3928 1328 
Q 3928 1006 3792 729 
Q 3656 453 3456 303 
Q 3256 153 2954 76 
Q 2653 0 2216 0 
L 469 0 
z
M 1075 2656 
L 2066 2656 
Q 2469 2656 2644 2709 
Q 2875 2778 2992 2937 
Q 3109 3097 3109 3338 
Q 3109 3566 3000 3739 
Q 2891 3913 2687 3977 
Q 2484 4041 1991 4041 
L 1075 4041 
L 1075 2656 
z
M 1075 541 
L 2216 541 
Q 2509 541 2628 563 
Q 2838 600 2978 687 
Q 3119 775 3209 942 
Q 3300 1109 3300 1328 
Q 3300 1584 3169 1773 
Q 3038 1963 2805 2039 
Q 2572 2116 2134 2116 
L 1075 2116 
L 1075 541 
z
" transform="scale(0.015625)"/>
       <path id="ArialMT-6f" d="M 213 1659 
Q 213 2581 725 3025 
Q 1153 3394 1769 3394 
Q 2453 3394 2887 2945 
Q 3322 2497 3322 1706 
Q 3322 1066 3130 698 
Q 2938 331 2570 128 
Q 2203 -75 1769 -75 
Q 1072 -75 642 372 
Q 213 819 213 1659 
z
M 791 1659 
Q 791 1022 1069 705 
Q 1347 388 1769 388 
Q 2188 388 2466 706 
Q 2744 1025 2744 1678 
Q 2744 2294 2464 2611 
Q 2184 2928 1769 2928 
Q 1347 2928 1069 2612 
Q 791 2297 791 1659 
z
" transform="scale(0.015625)"/>
       <path id="ArialMT-73" d="M 197 991 
L 753 1078 
Q 800 744 1014 566 
Q 1228 388 1613 388 
Q 2000 388 2187 545 
Q 2375 703 2375 916 
Q 2375 1106 2209 1216 
Q 2094 1291 1634 1406 
Q 1016 1563 777 1677 
Q 538 1791 414 1992 
Q 291 2194 291 2438 
Q 291 2659 392 2848 
Q 494 3038 669 3163 
Q 800 3259 1026 3326 
Q 1253 3394 1513 3394 
Q 1903 3394 2198 3281 
Q 2494 3169 2634 2976 
Q 2775 2784 2828 2463 
L 2278 2388 
Q 2241 2644 2061 2787 
Q 1881 2931 1553 2931 
Q 1166 2931 1000 2803 
Q 834 2675 834 2503 
Q 834 2394 903 2306 
Q 972 2216 1119 2156 
Q 1203 2125 1616 2013 
Q 2213 1853 2448 1751 
Q 2684 1650 2818 1456 
Q 2953 1263 2953 975 
Q 2953 694 2789 445 
Q 2625 197 2315 61 
Q 2006 -75 1616 -75 
Q 969 -75 630 194 
Q 291 463 197 991 
z
" transform="scale(0.015625)"/>
       <path id="ArialMT-28" d="M 1497 -1347 
Q 1031 -759 709 28 
Q 388 816 388 1659 
Q 388 2403 628 3084 
Q 909 3875 1497 4659 
L 1900 4659 
Q 1522 4009 1400 3731 
Q 1209 3300 1100 2831 
Q 966 2247 966 1656 
Q 966 153 1900 -1347 
L 1497 -1347 
z
" transform="scale(0.015625)"/>
       <path id="ArialMT-67" d="M 319 -275 
L 866 -356 
Q 900 -609 1056 -725 
Q 1266 -881 1628 -881 
Q 2019 -881 2231 -725 
Q 2444 -569 2519 -288 
Q 2563 -116 2559 434 
Q 2191 0 1641 0 
Q 956 0 581 494 
Q 206 988 206 1678 
Q 206 2153 378 2554 
Q 550 2956 876 3175 
Q 1203 3394 1644 3394 
Q 2231 3394 2613 2919 
L 2613 3319 
L 3131 3319 
L 3131 450 
Q 3131 -325 2973 -648 
Q 2816 -972 2473 -1159 
Q 2131 -1347 1631 -1347 
Q 1038 -1347 672 -1080 
Q 306 -813 319 -275 
z
M 784 1719 
Q 784 1066 1043 766 
Q 1303 466 1694 466 
Q 2081 466 2343 764 
Q 2606 1063 2606 1700 
Q 2606 2309 2336 2618 
Q 2066 2928 1684 2928 
Q 1309 2928 1046 2623 
Q 784 2319 784 1719 
z
" transform="scale(0.015625)"/>
       <path id="ArialMT-63" d="M 2588 1216 
L 3141 1144 
Q 3050 572 2676 248 
Q 2303 -75 1759 -75 
Q 1078 -75 664 370 
Q 250 816 250 1647 
Q 250 2184 428 2587 
Q 606 2991 970 3192 
Q 1334 3394 1763 3394 
Q 2303 3394 2647 3120 
Q 2991 2847 3088 2344 
L 2541 2259 
Q 2463 2594 2264 2762 
Q 2066 2931 1784 2931 
Q 1359 2931 1093 2626 
Q 828 2322 828 1663 
Q 828 994 1084 691 
Q 1341 388 1753 388 
Q 2084 388 2306 591 
Q 2528 794 2588 1216 
z
" transform="scale(0.015625)"/>
       <path id="ArialMT-29" d="M 791 -1347 
L 388 -1347 
Q 1322 153 1322 1656 
Q 1322 2244 1188 2822 
Q 1081 3291 891 3722 
Q 769 4003 388 4659 
L 791 4659 
Q 1378 3875 1659 3084 
Q 1900 2403 1900 1659 
Q 1900 816 1576 28 
Q 1253 -759 791 -1347 
z
" transform="scale(0.015625)"/>
      </defs>
      <use xlink:href="#ArialMT-52"/>
      <use xlink:href="#ArialMT-65" x="72.216797"/>
      <use xlink:href="#ArialMT-6c" x="127.832031"/>
      <use xlink:href="#ArialMT-61" x="150.048828"/>
      <use xlink:href="#ArialMT-74" x="205.664062"/>
      <use xlink:href="#ArialMT-69" x="233.447266"/>
      <use xlink:href="#ArialMT-76" x="255.664062"/>
      <use xlink:href="#ArialMT-65" x="305.664062"/>
      <use xlink:href="#ArialMT-20" x="361.279297"/>
      <use xlink:href="#ArialMT-42" x="389.0625"/>
      <use xlink:href="#ArialMT-6f" x="455.761719"/>
      <use xlink:href="#ArialMT-6f" x="511.376953"/>
      <use xlink:href="#ArialMT-73" x="566.992188"/>
      <use xlink:href="#ArialMT-74" x="616.992188"/>
      <use xlink:href="#ArialMT-20" x="644.775391"/>
      <use xlink:href="#ArialMT-28" x="672.558594"/>
      <use xlink:href="#ArialMT-6c" x="705.859375"/>
      <use xlink:href="#ArialMT-6f" x="728.076172"/>
      <use xlink:href="#ArialMT-67" x="783.691406"/>
      <use xlink:href="#ArialMT-20" x="839.306641"/>
      <use xlink:href="#ArialMT-73" x="867.089844"/>
      <use xlink:href="#ArialMT-63" x="917.089844"/>
      <use xlink:href="#ArialMT-61" x="967.089844"/>
      <use xlink:href="#ArialMT-6c" x="1022.705078"/>
      <use xlink:href="#ArialMT-65" x="1044.921875"/>
      <use xlink:href="#ArialMT-29" x="1100.537109"/>
     </g>
    </g>
   </g>
   <g id="patch_3">
    <path d="M 230.727273 483.075535 
L 263.454545 483.075535 
L 263.454545 481.944319 
L 230.727273 481.944319 
z
" clip-path="url(#p108e1d0f4d)" style="fill: #55a868; stroke: #ffffff; stroke-linejoin: miter"/>
   </g>
   <g id="patch_4">
    <path d="M 277.480519 483.075535 
L 310.207792 483.075535 
L 310.207792 305.804355 
L 277.480519 305.804355 
z
" clip-path="url(#p108e1d0f4d)" style="fill: #55a868; stroke: #ffffff; stroke-linejoin: miter"/>
   </g>
   <g id="patch_5">
    <path d="M 324.233766 483.075535 
L 356.961039 483.075535 
L 356.961039 481.932665 
L 324.233766 481.932665 
z
" clip-path="url(#p108e1d0f4d)" style="fill: #55a868; stroke: #ffffff; stroke-linejoin: miter"/>
   </g>
   <g id="patch_6">
    <path d="M 370.987013 483.075535 
L 403.714286 483.075535 
L 403.714286 483.017357 
L 370.987013 483.017357 
z
" clip-path="url(#p108e1d0f4d)" style="fill: #55a868; stroke: #ffffff; stroke-linejoin: miter"/>
   </g>
   <g id="patch_7">
    <path d="M 417.74026 483.075535 
L 450.467532 483.075535 
L 450.467532 483.03428 
L 417.74026 483.03428 
z
" clip-path="url(#p108e1d0f4d)" style="fill: #55a868; stroke: #ffffff; stroke-linejoin: miter"/>
   </g>
   <g id="patch_8">
    <path d="M 464.493506 483.075535 
L 497.220779 483.075535 
L 497.220779 478.398584 
L 464.493506 478.398584 
z
" clip-path="url(#p108e1d0f4d)" style="fill: #55a868; stroke: #ffffff; stroke-linejoin: miter"/>
   </g>
   <g id="patch_9">
    <path d="M 511.246753 483.075535 
L 543.974026 483.075535 
L 543.974026 478.545947 
L 511.246753 478.545947 
z
" clip-path="url(#p108e1d0f4d)" style="fill: #55a868; stroke: #ffffff; stroke-linejoin: miter"/>
   </g>
   <g id="patch_10">
    <path d="M 558 483.075535 
L 590.727273 483.075535 
L 590.727273 225.04571 
L 558 225.04571 
z
" clip-path="url(#p108e1d0f4d)" style="fill: #55a868; stroke: #ffffff; stroke-linejoin: miter"/>
   </g>
   <g id="patch_11">
    <path d="M 604.753247 483.075535 
L 637.480519 483.075535 
L 637.480519 471.407413 
L 604.753247 471.407413 
z
" clip-path="url(#p108e1d0f4d)" style="fill: #55a868; stroke: #ffffff; stroke-linejoin: miter"/>
   </g>
   <g id="patch_12">
    <path d="M 651.506494 483.075535 
L 684.233766 483.075535 
L 684.233766 470.659518 
L 651.506494 470.659518 
z
" clip-path="url(#p108e1d0f4d)" style="fill: #55a868; stroke: #ffffff; stroke-linejoin: miter"/>
   </g>
   <g id="patch_13">
    <path d="M 698.25974 483.075535 
L 730.987013 483.075535 
L 730.987013 111.6 
L 698.25974 111.6 
z
" clip-path="url(#p108e1d0f4d)" style="fill: #55a868; stroke: #ffffff; stroke-linejoin: miter"/>
   </g>
   <g id="patch_14">
    <path d="M 745.012987 483.075535 
L 777.74026 483.075535 
L 777.74026 476.112679 
L 745.012987 476.112679 
z
" clip-path="url(#p108e1d0f4d)" style="fill: #55a868; stroke: #ffffff; stroke-linejoin: miter"/>
   </g>
   <g id="patch_15">
    <path d="M 791.766234 483.075535 
L 824.493506 483.075535 
L 824.493506 249.339024 
L 791.766234 249.339024 
z
" clip-path="url(#p108e1d0f4d)" style="fill: #55a868; stroke: #ffffff; stroke-linejoin: miter"/>
   </g>
   <g id="patch_16">
    <path d="M 838.519481 483.075535 
L 871.246753 483.075535 
L 871.246753 381.806531 
L 838.519481 381.806531 
z
" clip-path="url(#p108e1d0f4d)" style="fill: #55a868; stroke: #ffffff; stroke-linejoin: miter"/>
   </g>
   <g id="patch_17">
    <path d="M 885.272727 483.075535 
L 918 483.075535 
L 918 483.045689 
L 885.272727 483.045689 
z
" clip-path="url(#p108e1d0f4d)" style="fill: #55a868; stroke: #ffffff; stroke-linejoin: miter"/>
   </g>
   <g id="patch_18">
    <path d="M 932.025974 483.075535 
L 964.753247 483.075535 
L 964.753247 483.070013 
L 932.025974 483.070013 
z
" clip-path="url(#p108e1d0f4d)" style="fill: #55a868; stroke: #ffffff; stroke-linejoin: miter"/>
   </g>
   <g id="patch_19">
    <path d="M 978.779221 483.075535 
L 1011.506494 483.075535 
L 1011.506494 188.698026 
L 978.779221 188.698026 
z
" clip-path="url(#p108e1d0f4d)" style="fill: #55a868; stroke: #ffffff; stroke-linejoin: miter"/>
   </g>
   <g id="patch_20">
    <path d="M 1025.532468 483.075535 
L 1058.25974 483.075535 
L 1058.25974 418.215288 
L 1025.532468 418.215288 
z
" clip-path="url(#p108e1d0f4d)" style="fill: #55a868; stroke: #ffffff; stroke-linejoin: miter"/>
   </g>
   <g id="patch_21">
    <path d="M 1072.285714 483.075535 
L 1105.012987 483.075535 
L 1105.012987 477.74777 
L 1072.285714 477.74777 
z
" clip-path="url(#p108e1d0f4d)" style="fill: #55a868; stroke: #ffffff; stroke-linejoin: miter"/>
   </g>
   <g id="patch_22">
    <path d="M 1119.038961 483.075535 
L 1151.766234 483.075535 
L 1151.766234 482.264807 
L 1119.038961 482.264807 
z
" clip-path="url(#p108e1d0f4d)" style="fill: #55a868; stroke: #ffffff; stroke-linejoin: miter"/>
   </g>
   <g id="patch_23">
    <path d="M 1165.792208 483.075535 
L 1198.519481 483.075535 
L 1198.519481 466.910374 
L 1165.792208 466.910374 
z
" clip-path="url(#p108e1d0f4d)" style="fill: #55a868; stroke: #ffffff; stroke-linejoin: miter"/>
   </g>
   <g id="patch_24">
    <path d="M 1212.545455 483.075535 
L 1245.272727 483.075535 
L 1245.272727 475.54301 
L 1212.545455 475.54301 
z
" clip-path="url(#p108e1d0f4d)" style="fill: #55a868; stroke: #ffffff; stroke-linejoin: miter"/>
   </g>
   <g id="patch_25">
    <path d="M 277.480519 483.075535 
L 310.207792 483.075535 
L 310.207792 598.731427 
L 277.480519 598.731427 
z
" clip-path="url(#p108e1d0f4d)" style="fill: #c44e52; stroke: #ffffff; stroke-linejoin: miter"/>
   </g>
   <g id="patch_26">
    <path d="M 324.233766 483.075535 
L 356.961039 483.075535 
L 356.961039 598.731427 
L 324.233766 598.731427 
z
" clip-path="url(#p108e1d0f4d)" style="fill: #c44e52; stroke: #ffffff; stroke-linejoin: miter"/>
   </g>
   <g id="patch_27">
    <path d="M 370.987013 483.075535 
L 403.714286 483.075535 
L 403.714286 598.731427 
L 370.987013 598.731427 
z
" clip-path="url(#p108e1d0f4d)" style="fill: #c44e52; stroke: #ffffff; stroke-linejoin: miter"/>
   </g>
   <g id="patch_28">
    <path d="M 417.74026 483.075535 
L 450.467532 483.075535 
L 450.467532 598.731427 
L 417.74026 598.731427 
z
" clip-path="url(#p108e1d0f4d)" style="fill: #c44e52; stroke: #ffffff; stroke-linejoin: miter"/>
   </g>
   <g id="patch_29">
    <path d="M 464.493506 483.075535 
L 497.220779 483.075535 
L 497.220779 598.731427 
L 464.493506 598.731427 
z
" clip-path="url(#p108e1d0f4d)" style="fill: #c44e52; stroke: #ffffff; stroke-linejoin: miter"/>
   </g>
   <g id="patch_30">
    <path d="M 511.246753 483.075535 
L 543.974026 483.075535 
L 543.974026 598.731427 
L 511.246753 598.731427 
z
" clip-path="url(#p108e1d0f4d)" style="fill: #c44e52; stroke: #ffffff; stroke-linejoin: miter"/>
   </g>
   <g id="patch_31">
    <path d="M 558 483.075535 
L 590.727273 483.075535 
L 590.727273 598.731427 
L 558 598.731427 
z
" clip-path="url(#p108e1d0f4d)" style="fill: #c44e52; stroke: #ffffff; stroke-linejoin: miter"/>
   </g>
   <g id="patch_32">
    <path d="M 604.753247 483.075535 
L 637.480519 483.075535 
L 637.480519 598.731427 
L 604.753247 598.731427 
z
" clip-path="url(#p108e1d0f4d)" style="fill: #c44e52; stroke: #ffffff; stroke-linejoin: miter"/>
   </g>
   <g id="patch_33">
    <path d="M 651.506494 483.075535 
L 684.233766 483.075535 
L 684.233766 598.731427 
L 651.506494 598.731427 
z
" clip-path="url(#p108e1d0f4d)" style="fill: #c44e52; stroke: #ffffff; stroke-linejoin: miter"/>
   </g>
   <g id="patch_34">
    <path d="M 698.25974 483.075535 
L 730.987013 483.075535 
L 730.987013 598.731427 
L 698.25974 598.731427 
z
" clip-path="url(#p108e1d0f4d)" style="fill: #c44e52; stroke: #ffffff; stroke-linejoin: miter"/>
   </g>
   <g id="patch_35">
    <path d="M 745.012987 483.075535 
L 777.74026 483.075535 
L 777.74026 598.731427 
L 745.012987 598.731427 
z
" clip-path="url(#p108e1d0f4d)" style="fill: #c44e52; stroke: #ffffff; stroke-linejoin: miter"/>
   </g>
   <g id="patch_36">
    <path d="M 791.766234 483.075535 
L 824.493506 483.075535 
L 824.493506 598.731427 
L 791.766234 598.731427 
z
" clip-path="url(#p108e1d0f4d)" style="fill: #c44e52; stroke: #ffffff; stroke-linejoin: miter"/>
   </g>
   <g id="patch_37">
    <path d="M 838.519481 483.075535 
L 871.246753 483.075535 
L 871.246753 598.731427 
L 838.519481 598.731427 
z
" clip-path="url(#p108e1d0f4d)" style="fill: #c44e52; stroke: #ffffff; stroke-linejoin: miter"/>
   </g>
   <g id="patch_38">
    <path d="M 885.272727 483.075535 
L 918 483.075535 
L 918 598.731427 
L 885.272727 598.731427 
z
" clip-path="url(#p108e1d0f4d)" style="fill: #c44e52; stroke: #ffffff; stroke-linejoin: miter"/>
   </g>
   <g id="patch_39">
    <path d="M 932.025974 483.075535 
L 964.753247 483.075535 
L 964.753247 598.731427 
L 932.025974 598.731427 
z
" clip-path="url(#p108e1d0f4d)" style="fill: #c44e52; stroke: #ffffff; stroke-linejoin: miter"/>
   </g>
   <g id="patch_40">
    <path d="M 978.779221 483.075535 
L 1011.506494 483.075535 
L 1011.506494 598.731427 
L 978.779221 598.731427 
z
" clip-path="url(#p108e1d0f4d)" style="fill: #c44e52; stroke: #ffffff; stroke-linejoin: miter"/>
   </g>
   <g id="patch_41">
    <path d="M 1025.532468 483.075535 
L 1058.25974 483.075535 
L 1058.25974 598.731427 
L 1025.532468 598.731427 
z
" clip-path="url(#p108e1d0f4d)" style="fill: #c44e52; stroke: #ffffff; stroke-linejoin: miter"/>
   </g>
   <g id="patch_42">
    <path d="M 1072.285714 483.075535 
L 1105.012987 483.075535 
L 1105.012987 598.731427 
L 1072.285714 598.731427 
z
" clip-path="url(#p108e1d0f4d)" style="fill: #c44e52; stroke: #ffffff; stroke-linejoin: miter"/>
   </g>
   <g id="patch_43">
    <path d="M 1119.038961 483.075535 
L 1151.766234 483.075535 
L 1151.766234 598.731427 
L 1119.038961 598.731427 
z
" clip-path="url(#p108e1d0f4d)" style="fill: #c44e52; stroke: #ffffff; stroke-linejoin: miter"/>
   </g>
   <g id="patch_44">
    <path d="M 1165.792208 483.075535 
L 1198.519481 483.075535 
L 1198.519481 598.731427 
L 1165.792208 598.731427 
z
" clip-path="url(#p108e1d0f4d)" style="fill: #c44e52; stroke: #ffffff; stroke-linejoin: miter"/>
   </g>
   <g id="patch_45">
    <path d="M 1212.545455 483.075535 
L 1245.272727 483.075535 
L 1245.272727 598.731427 
L 1212.545455 598.731427 
z
" clip-path="url(#p108e1d0f4d)" style="fill: #c44e52; stroke: #ffffff; stroke-linejoin: miter"/>
   </g>
   <g id="patch_46">
    <path d="M 230.727273 483.075535 
L 263.454545 483.075535 
L 263.454545 615.6 
L 230.727273 615.6 
z
" clip-path="url(#p108e1d0f4d)" style="fill: #dd8452; stroke: #ffffff; stroke-linejoin: miter"/>
   </g>
   <g id="line2d_51">
    <path d="M 230.727273 483.075535 
L 1245.272727 483.075535 
" clip-path="url(#p108e1d0f4d)" style="fill: none; stroke: #ffffff; stroke-width: 0.1; stroke-linecap: round"/>
   </g>
   <g id="patch_47">
    <path d="M 180 640.8 
L 180 86.4 
" style="fill: none; stroke: #262626; stroke-width: 0.8; stroke-linejoin: miter; stroke-linecap: square"/>
   </g>
   <g id="patch_48">
    <path d="M 1296 640.8 
L 1296 86.4 
" style="fill: none; stroke: #262626; stroke-width: 0.8; stroke-linejoin: miter; stroke-linecap: square"/>
   </g>
   <g id="patch_49">
    <path d="M 180 640.8 
L 1296 640.8 
" style="fill: none; stroke: #262626; stroke-width: 0.8; stroke-linejoin: miter; stroke-linecap: square"/>
   </g>
   <g id="patch_50">
    <path d="M 180 86.4 
L 1296 86.4 
" style="fill: none; stroke: #262626; stroke-width: 0.8; stroke-linejoin: miter; stroke-linecap: square"/>
   </g>
   <g id="legend_1">
    <g id="patch_51">
     <path d="M 1123.279687 162.229687 
L 1285.5 162.229687 
Q 1288.5 162.229687 1288.5 159.229687 
L 1288.5 96.9 
Q 1288.5 93.9 1285.5 93.9 
L 1123.279687 93.9 
Q 1120.279687 93.9 1120.279687 96.9 
L 1120.279687 159.229687 
Q 1120.279687 162.229687 1123.279687 162.229687 
z
" style="fill: #ffffff; opacity: 0.8; stroke: #cccccc; stroke-linejoin: miter"/>
    </g>
    <g id="patch_52">
     <path d="M 1126.279687 110.636719 
L 1156.279687 110.636719 
L 1156.279687 100.136719 
L 1126.279687 100.136719 
z
" style="fill: #55a868; stroke: #ffffff; stroke-linejoin: miter"/>
    </g>
    <g id="text_28">
     <!-- Max Boost -->
     <g style="fill: #262626" transform="translate(1168.279687 110.636719) scale(0.15 -0.15)">
      <defs>
       <path id="ArialMT-4d" d="M 475 0 
L 475 4581 
L 1388 4581 
L 2472 1338 
Q 2622 884 2691 659 
Q 2769 909 2934 1394 
L 4031 4581 
L 4847 4581 
L 4847 0 
L 4263 0 
L 4263 3834 
L 2931 0 
L 2384 0 
L 1059 3900 
L 1059 0 
L 475 0 
z
" transform="scale(0.015625)"/>
       <path id="ArialMT-78" d="M 47 0 
L 1259 1725 
L 138 3319 
L 841 3319 
L 1350 2541 
Q 1494 2319 1581 2169 
Q 1719 2375 1834 2534 
L 2394 3319 
L 3066 3319 
L 1919 1756 
L 3153 0 
L 2463 0 
L 1781 1031 
L 1600 1309 
L 728 0 
L 47 0 
z
" transform="scale(0.015625)"/>
      </defs>
      <use xlink:href="#ArialMT-4d"/>
      <use xlink:href="#ArialMT-61" x="83.300781"/>
      <use xlink:href="#ArialMT-78" x="138.916016"/>
      <use xlink:href="#ArialMT-20" x="188.916016"/>
      <use xlink:href="#ArialMT-42" x="216.699219"/>
      <use xlink:href="#ArialMT-6f" x="283.398438"/>
      <use xlink:href="#ArialMT-6f" x="339.013672"/>
      <use xlink:href="#ArialMT-73" x="394.628906"/>
      <use xlink:href="#ArialMT-74" x="444.628906"/>
     </g>
    </g>
    <g id="patch_53">
     <path d="M 1126.279687 131.854687 
L 1156.279687 131.854687 
L 1156.279687 121.354687 
L 1126.279687 121.354687 
z
" style="fill: #c44e52; stroke: #ffffff; stroke-linejoin: miter"/>
    </g>
    <g id="text_29">
     <!-- T/O -->
     <g style="fill: #262626" transform="translate(1168.279687 131.854687) scale(0.15 -0.15)">
      <defs>
       <path id="ArialMT-54" d="M 1659 0 
L 1659 4041 
L 150 4041 
L 150 4581 
L 3781 4581 
L 3781 4041 
L 2266 4041 
L 2266 0 
L 1659 0 
z
" transform="scale(0.015625)"/>
       <path id="ArialMT-2f" d="M 0 -78 
L 1328 4659 
L 1778 4659 
L 453 -78 
L 0 -78 
z
" transform="scale(0.015625)"/>
       <path id="ArialMT-4f" d="M 309 2231 
Q 309 3372 921 4017 
Q 1534 4663 2503 4663 
Q 3138 4663 3647 4359 
Q 4156 4056 4423 3514 
Q 4691 2972 4691 2284 
Q 4691 1588 4409 1038 
Q 4128 488 3612 205 
Q 3097 -78 2500 -78 
Q 1853 -78 1343 234 
Q 834 547 571 1087 
Q 309 1628 309 2231 
z
M 934 2222 
Q 934 1394 1379 917 
Q 1825 441 2497 441 
Q 3181 441 3623 922 
Q 4066 1403 4066 2288 
Q 4066 2847 3877 3264 
Q 3688 3681 3323 3911 
Q 2959 4141 2506 4141 
Q 1863 4141 1398 3698 
Q 934 3256 934 2222 
z
" transform="scale(0.015625)"/>
      </defs>
      <use xlink:href="#ArialMT-54"/>
      <use xlink:href="#ArialMT-2f" x="61.083984"/>
      <use xlink:href="#ArialMT-4f" x="88.867188"/>
     </g>
    </g>
    <g id="patch_54">
     <path d="M 1126.279687 153.072656 
L 1156.279687 153.072656 
L 1156.279687 142.572656 
L 1126.279687 142.572656 
z
" style="fill: #dd8452; stroke: #ffffff; stroke-linejoin: miter"/>
    </g>
    <g id="text_30">
     <!-- Max Degradation -->
     <g style="fill: #262626" transform="translate(1168.279687 153.072656) scale(0.15 -0.15)">
      <defs>
       <path id="ArialMT-44" d="M 494 0 
L 494 4581 
L 2072 4581 
Q 2606 4581 2888 4516 
Q 3281 4425 3559 4188 
Q 3922 3881 4101 3404 
Q 4281 2928 4281 2316 
Q 4281 1794 4159 1391 
Q 4038 988 3847 723 
Q 3656 459 3429 307 
Q 3203 156 2883 78 
Q 2563 0 2147 0 
L 494 0 
z
M 1100 541 
L 2078 541 
Q 2531 541 2789 625 
Q 3047 709 3200 863 
Q 3416 1078 3536 1442 
Q 3656 1806 3656 2325 
Q 3656 3044 3420 3430 
Q 3184 3816 2847 3947 
Q 2603 4041 2063 4041 
L 1100 4041 
L 1100 541 
z
" transform="scale(0.015625)"/>
       <path id="ArialMT-64" d="M 2575 0 
L 2575 419 
Q 2259 -75 1647 -75 
Q 1250 -75 917 144 
Q 584 363 401 755 
Q 219 1147 219 1656 
Q 219 2153 384 2558 
Q 550 2963 881 3178 
Q 1213 3394 1622 3394 
Q 1922 3394 2156 3267 
Q 2391 3141 2538 2938 
L 2538 4581 
L 3097 4581 
L 3097 0 
L 2575 0 
z
M 797 1656 
Q 797 1019 1065 703 
Q 1334 388 1700 388 
Q 2069 388 2326 689 
Q 2584 991 2584 1609 
Q 2584 2291 2321 2609 
Q 2059 2928 1675 2928 
Q 1300 2928 1048 2622 
Q 797 2316 797 1656 
z
" transform="scale(0.015625)"/>
       <path id="ArialMT-6e" d="M 422 0 
L 422 3319 
L 928 3319 
L 928 2847 
Q 1294 3394 1984 3394 
Q 2284 3394 2536 3286 
Q 2788 3178 2913 3003 
Q 3038 2828 3088 2588 
Q 3119 2431 3119 2041 
L 3119 0 
L 2556 0 
L 2556 2019 
Q 2556 2363 2490 2533 
Q 2425 2703 2258 2804 
Q 2091 2906 1866 2906 
Q 1506 2906 1245 2678 
Q 984 2450 984 1813 
L 984 0 
L 422 0 
z
" transform="scale(0.015625)"/>
      </defs>
      <use xlink:href="#ArialMT-4d"/>
      <use xlink:href="#ArialMT-61" x="83.300781"/>
      <use xlink:href="#ArialMT-78" x="138.916016"/>
      <use xlink:href="#ArialMT-20" x="188.916016"/>
      <use xlink:href="#ArialMT-44" x="216.699219"/>
      <use xlink:href="#ArialMT-65" x="288.916016"/>
      <use xlink:href="#ArialMT-67" x="344.53125"/>
      <use xlink:href="#ArialMT-72" x="400.146484"/>
      <use xlink:href="#ArialMT-61" x="433.447266"/>
      <use xlink:href="#ArialMT-64" x="489.0625"/>
      <use xlink:href="#ArialMT-61" x="544.677734"/>
      <use xlink:href="#ArialMT-74" x="600.292969"/>
      <use xlink:href="#ArialMT-69" x="628.076172"/>
      <use xlink:href="#ArialMT-6f" x="650.292969"/>
      <use xlink:href="#ArialMT-6e" x="705.908203"/>
     </g>
    </g>
   </g>
  </g>
 </g>
 <defs>
  <clipPath id="p108e1d0f4d">
   <rect x="180" y="86.4" width="1116" height="554.4"/>
  </clipPath>
 </defs>
</svg>
